<svg width="19" height="20" viewBox="0 0 19 20" fill="none" xmlns="http://www.w3.org/2000/svg">
<path d="M18.6753 7.239C17.8522 6.53123 16.0831 6.08575 14.4129 6.26425C10.9488 6.63456 10.9617 8.07106 7.88399 7.91393C6.05682 7.82079 4.38472 5.95835 4.98488 3.39536C5.50881 1.15766 7.79084 0.238686 8.25616 0.0860901C6.9292 0.266499 5.65426 0.733319 4.51487 1.45597C3.37547 2.17862 2.39734 3.14078 1.64454 4.27944C0.891748 5.41809 0.381282 6.70754 0.146589 8.0633C-0.0881045 9.41906 -0.0417288 10.8105 0.282675 12.1466C1.12581 13.4111 2.9461 13.5838 2.9461 13.5838C2.77134 14.5789 2.78371 15.5993 2.98256 16.5897C4.91209 16.0659 6.69 13.4714 6.69 13.4714C6.69 13.4714 7.17665 13.0479 10.264 11.6736C13.5944 10.191 17.8528 11.3161 18.8305 11.6087C19.1005 10.1588 19.0474 8.66476 18.6753 7.239Z" fill="#009CDC"/>
<path d="M18.2036 5.85573C18.0827 5.57163 17.9477 5.29545 17.802 5.02621C17.1544 4.98771 16.4488 4.84361 15.9047 4.46848C14.5649 3.54456 13.341 1.73194 11.565 0.729877C10.7497 0.29725 9.84685 0.0683514 8.92953 0.0617371C11.4435 0.388163 12.6719 3.31368 14.1932 4.43989C16.2127 5.93528 17.3513 5.94038 18.2383 5.93457C18.2273 5.90796 18.2149 5.8822 18.2036 5.85573Z" fill="#248332"/>
<path d="M9.50005 8.42312e-08C9.48973 8.42312e-08 9.47969 0.000848947 9.46951 0.000848947C9.3044 0.0130227 9.17204 0.0277447 9.08027 0.0396353C8.98396 0.0522337 8.92892 0.0617165 8.92892 0.0617165C9.84624 0.0683309 10.7491 0.297229 11.5644 0.729856C13.3404 1.73192 14.5638 3.54453 15.9041 4.46846C16.4482 4.84358 17.1538 4.98769 17.8014 5.02619C16.9793 3.50273 15.776 2.23328 14.3163 1.34949C12.8566 0.465709 11.1937 -0.000228726 9.50005 8.42312e-08Z" fill="#8ABB2A"/>
<path d="M15.1734 13.0289L13.9174 11.7679C15.5918 11.6562 18.0175 12.296 18.7006 12.4883C18.3359 13.9411 17.651 15.288 16.6989 16.4247C15.7468 17.5613 14.5531 18.4572 13.2104 19.0429C11.8676 19.6285 10.4119 19.8883 8.95584 19.802C7.49981 19.7157 6.08265 19.2857 4.81415 18.5453C6.06317 18.4922 8.83419 17.9156 10.7135 16.897C13.4057 15.4374 15.1734 13.0289 15.1734 13.0289Z" fill="#004D8D"/>
<path d="M6.21105 15.2139C10.143 15.2015 11.245 12.8328 11.245 12.8328L10.1042 12.6488C10.3756 12.5042 10.6563 12.3792 10.9445 12.2747C11.6974 12.0063 12.48 11.8358 13.2741 11.7673L14.4469 12.9959C12.7408 15.3315 10.7336 16.6079 8.45827 17.3215C6.85482 17.8245 4.77752 18.1567 4.23529 18.1788C3.82295 17.8957 3.43267 17.5799 3.06799 17.2345C5.30957 16.5755 6.21105 15.2139 6.21105 15.2139Z" fill="#004D8D"/>
<path d="M9.66007 12.8539L10.5981 13.0824C10.5981 13.0824 9.4043 14.4601 6.56476 14.6982L7.00201 14.1016C7.00201 14.1016 8.81749 13.1491 9.66007 12.8539Z" fill="#009CDC"/>
<path d="M2.34508 14.1764C2.34508 14.1764 2.07624 15.6353 2.50592 16.682C1.61243 15.5212 1.00621 14.7241 0.517365 13.3172C0.879909 13.6549 1.35665 13.988 2.34508 14.1764Z" fill="#248332"/>
<path d="M13.3834 9.7056C13.4696 9.7056 13.5539 9.7319 13.6255 9.78117C13.6972 9.83045 13.7531 9.90049 13.7861 9.98244C13.8191 10.0644 13.8277 10.1545 13.8109 10.2415C13.7941 10.3285 13.7526 10.4084 13.6916 10.4712C13.6306 10.5339 13.553 10.5766 13.4684 10.5939C13.3839 10.6112 13.2962 10.6023 13.2166 10.5684C13.1369 10.5344 13.0689 10.4769 13.021 10.4032C12.9731 10.3294 12.9475 10.2427 12.9475 10.154C12.9475 10.0351 12.9934 9.92104 13.0752 9.83694C13.1569 9.75284 13.2678 9.7056 13.3834 9.7056Z" fill="white"/>
<path d="M10.3374 4.9853C10.1744 4.09039 9.56444 3.46472 9.14948 2.66989C8.48782 1.40269 8.43498 0.746155 8.43498 0.746155C8.43498 0.746155 8.38201 1.40269 7.72035 2.66989C7.30538 3.46472 6.69546 4.09039 6.53242 4.9853C6.45627 5.39297 6.5197 5.81518 6.71194 6.18016C6.90418 6.54515 7.21335 6.83036 7.58689 6.98731C7.84996 7.12358 8.14039 7.19456 8.43491 7.19456C8.72944 7.19456 9.01987 7.12358 9.28294 6.98731C9.65649 6.83038 9.96568 6.54517 10.1579 6.18019C10.3502 5.8152 10.4136 5.39297 10.3374 4.9853Z" fill="#009CDC"/>
<path d="M9.02314 6.70141C8.76199 6.72193 8.49955 6.68611 8.25264 6.59624C7.90753 6.49166 7.60829 6.26733 7.40579 5.96139C7.20329 5.65545 7.11004 5.28679 7.1419 4.91811C7.18602 4.52333 7.30414 4.14111 7.48972 3.7926C7.23106 4.19179 6.98216 4.58531 6.893 5.07396C6.82927 5.4149 6.88231 5.76804 7.0431 6.07329C7.20389 6.37854 7.4625 6.61706 7.77494 6.74827C7.9949 6.86228 8.23777 6.92167 8.48407 6.92167C8.73037 6.92167 8.97323 6.86228 9.19319 6.74827C9.30236 6.70297 9.40543 6.64346 9.49988 6.57118C9.34793 6.63811 9.18734 6.68198 9.02314 6.70141Z" fill="#004D8D"/>
<path d="M7.94569 0.746155C7.67355 1.21085 7.37064 1.65572 7.03912 2.07762C6.53431 2.70754 6.29794 3.14962 6.22281 3.58065C6.173 3.79439 6.173 4.01722 6.22281 4.23096H6.22474C6.52179 3.54173 7.07035 3.04925 7.52907 2.13594C7.7574 1.70623 7.89911 1.23354 7.94569 0.746155Z" fill="#8ABB2A"/>
<path d="M6.22277 3.58065C6.29789 3.14962 6.53426 2.70754 7.03907 2.07762C7.37059 1.65572 7.6735 1.21085 7.94564 0.746155C7.94564 0.746155 6.87025 1.13373 6.27863 2.03968C5.98249 2.49122 5.80274 3.01277 5.75624 3.55538C5.70975 4.09798 5.79803 4.64384 6.01281 5.14172C6.02829 4.82707 6.10013 4.51806 6.22469 4.23025H6.22277C6.17307 4.01673 6.17307 3.79416 6.22277 3.58065Z" fill="#248332"/>
<path d="M13.4173 4.62179C12.7381 4.67955 11.7333 3.97843 10.7235 2.51263C9.71376 1.04683 8.9668 0.729034 8.9668 0.729034C9.01784 1.23415 9.16021 1.725 9.38658 2.17629C10.1296 3.70353 10.9753 5.09728 13.9616 5.1413C13.77 4.97979 13.5882 4.80629 13.4173 4.62179Z" fill="#248332"/>
<path d="M10.7235 2.51321C11.7333 3.97859 12.7381 4.679 13.4174 4.62238C13.0266 4.21739 12.4097 3.53127 11.5125 2.40973C10.2127 0.785108 8.9671 0.730469 8.9671 0.730469C8.9671 0.730469 9.71379 1.04783 10.7235 2.51321Z" fill="#8ABB2A"/>
</svg>
