<svg width="16" height="17" viewBox="0 0 16 17" fill="none" xmlns="http://www.w3.org/2000/svg">
<path d="M6.76197 13.7466C8.05175 13.7466 9.25605 13.2983 10.235 12.5513L13.9179 16.4858C14.0888 16.6685 14.3141 16.7598 14.5472 16.7598C15.0523 16.7598 15.4174 16.3447 15.4174 15.8135C15.4174 15.5645 15.3397 15.332 15.1688 15.1494L11.5093 11.2314C12.2785 10.1523 12.7369 8.81592 12.7369 7.36328C12.7369 3.85205 10.0486 0.97998 6.76197 0.97998C3.46761 0.97998 0.787064 3.85205 0.787064 7.36328C0.787064 10.8745 3.46761 13.7466 6.76197 13.7466ZM6.76197 12.3687C4.1902 12.3687 2.07684 10.1025 2.07684 7.36328C2.07684 4.62402 4.1902 2.35791 6.76197 2.35791C9.32598 2.35791 11.4471 4.62402 11.4471 7.36328C11.4471 10.1025 9.32598 12.3687 6.76197 12.3687Z" fill="#3C3C43" fill-opacity="0.6"/>
</svg>
