<svg width="18" height="23" viewBox="0 0 18 23" fill="none" xmlns="http://www.w3.org/2000/svg">
<path d="M14.325 7.66667V7.96667H14.625H15.75C16.8294 7.96667 17.7 8.8256 17.7 9.85714V20.8095C17.7 21.8411 16.8294 22.7 15.75 22.7H2.25C1.17055 22.7 0.3 21.8411 0.3 20.8095V9.85714C0.3 8.8256 1.17055 7.96667 2.25 7.96667H3.375H3.675V7.66667V5.47619C3.675 2.62655 6.05305 0.3 9 0.3C11.9469 0.3 14.325 2.62655 14.325 5.47619V7.66667ZM12.4875 7.96667H12.7875V7.66667V5.47619C12.7875 3.43012 11.0818 1.78095 9 1.78095C6.9182 1.78095 5.2125 3.43012 5.2125 5.47619V7.66667V7.96667H5.5125H12.4875ZM6.45 15.3333C6.45 16.7113 7.60445 17.8238 9 17.8238C10.3956 17.8238 11.55 16.7113 11.55 15.3333C11.55 13.9554 10.3956 12.8429 9 12.8429C7.60445 12.8429 6.45 13.9554 6.45 15.3333Z" stroke="black" stroke-width="0.6"/>
</svg>
