<svg width="23" height="16" viewBox="0 0 23 16" fill="none" xmlns="http://www.w3.org/2000/svg">
<path d="M11.795 0.5C6.74381 0.5 2.43009 3.61 0.682373 8C2.43009 12.39 6.74381 15.5 11.795 15.5C16.8462 15.5 21.1599 12.39 22.9076 8C21.1599 3.61 16.8462 0.5 11.795 0.5ZM11.795 13C9.00674 13 6.74381 10.76 6.74381 8C6.74381 5.24 9.00674 3 11.795 3C14.5833 3 16.8462 5.24 16.8462 8C16.8462 10.76 14.5833 13 11.795 13ZM11.795 5C10.118 5 8.76428 6.34 8.76428 8C8.76428 9.66 10.118 11 11.795 11C13.472 11 14.8257 9.66 14.8257 8C14.8257 6.34 13.472 5 11.795 5Z" fill="black"/>
</svg>
