<svg width="85" height="32" viewBox="0 0 85 32" fill="none" xmlns="http://www.w3.org/2000/svg">
<path d="M30.1557 11.6889C28.8267 10.5461 25.9701 9.82675 23.2732 10.115C17.6795 10.7129 17.7004 13.0325 12.7308 12.7787C9.78044 12.6283 7.08046 9.62103 8.04955 5.48252C8.89555 1.86926 12.5804 0.385377 13.3318 0.138977C11.1891 0.430286 9.13041 1.18407 7.29061 2.35094C5.45081 3.51782 3.8714 5.07145 2.65585 6.91006C1.4403 8.74866 0.616038 10.8308 0.237075 13.0199C-0.141889 15.2091 -0.067005 17.4559 0.456816 19.6133C1.81825 21.6551 4.7575 21.9339 4.7575 21.9339C4.47531 23.5408 4.49529 25.1885 4.81637 26.7877C7.93202 25.9419 10.8028 21.7525 10.8028 21.7525C10.8028 21.7525 11.5886 21.0686 16.5738 18.8496C21.9516 16.4556 28.8276 18.2722 30.4063 18.7447C30.8423 16.4035 30.7566 13.9911 30.1557 11.6889Z" fill="#009CDC"/>
<path d="M29.3941 9.45533C29.1989 8.99659 28.9809 8.55064 28.7456 8.1159C27.6999 8.05373 26.5606 7.82104 25.682 7.21533C23.5185 5.72344 21.5424 2.79659 18.6747 1.17853C17.3582 0.479957 15.9003 0.110351 14.4191 0.0996704C18.4785 0.626756 20.462 5.35064 22.9185 7.16916C26.1794 9.58379 28.0178 9.59202 29.4501 9.58265C29.4324 9.53968 29.4124 9.49807 29.3941 9.45533Z" fill="#248332"/>
<path d="M15.3403 1.3601e-07C15.3236 1.3601e-07 15.3074 0.00137081 15.291 0.00137081C15.0244 0.021028 14.8107 0.0447999 14.6625 0.0639999C14.507 0.0843427 14.4181 0.0996549 14.4181 0.0996549C15.8993 0.110335 17.3572 0.479941 18.6737 1.17851C21.5414 2.79657 23.5169 5.72343 25.681 7.21531C26.5597 7.82103 27.6989 8.05371 28.7447 8.11588C27.4172 5.65592 25.4742 3.60612 23.1172 2.17905C20.7603 0.75199 18.0751 -0.000369328 15.3403 1.3601e-07Z" fill="#8ABB2A"/>
<path d="M24.5011 21.0379L22.4729 19.0018C25.1767 18.8215 29.0935 19.8546 30.1965 20.165C29.6076 22.5109 28.5016 24.6858 26.9643 26.5212C25.427 28.3565 23.4995 29.8031 21.3314 30.7488C19.1632 31.6945 16.8125 32.114 14.4615 31.9746C12.1104 31.8353 9.82208 31.141 7.7738 29.9454C9.79062 29.8596 14.265 28.9287 17.2996 27.2839C21.6467 24.9271 24.5011 21.0379 24.5011 21.0379Z" fill="#004D8D"/>
<path d="M10.0294 24.5661C16.3784 24.546 18.1577 20.7213 18.1577 20.7213L16.3158 20.4242C16.7539 20.1908 17.2072 19.9889 17.6725 19.8201C18.8883 19.3867 20.152 19.1115 21.4342 19.0009L23.328 20.9847C20.5731 24.7561 17.332 26.8171 13.658 27.9693C11.0689 28.7815 7.71463 29.3179 6.83908 29.3536C6.17326 28.8964 5.54307 28.3866 4.95422 27.8288C8.57375 26.7648 10.0294 24.5661 10.0294 24.5661Z" fill="#004D8D"/>
<path d="M15.5988 20.7554L17.1135 21.1243C17.1135 21.1243 15.1858 23.349 10.6007 23.7335L11.3068 22.7701C11.3068 22.7701 14.2382 21.232 15.5988 20.7554Z" fill="#009CDC"/>
<path d="M3.78706 22.891C3.78706 22.891 3.35295 25.2466 4.04678 26.9367C2.60403 25.0624 1.62517 23.7753 0.835815 21.5035C1.42122 22.0489 2.19103 22.5867 3.78706 22.891Z" fill="#248332"/>
<path d="M21.6108 15.6718C21.75 15.6718 21.8861 15.7143 22.0018 15.7938C22.1176 15.8734 22.2078 15.9865 22.261 16.1188C22.3143 16.2511 22.3283 16.3967 22.3011 16.5372C22.2739 16.6776 22.2069 16.8067 22.1085 16.9079C22.01 17.0092 21.8846 17.0782 21.7481 17.1061C21.6116 17.1341 21.4701 17.1197 21.3415 17.0649C21.2129 17.0101 21.1029 16.9173 21.0256 16.7982C20.9483 16.6791 20.907 16.5391 20.907 16.3959C20.907 16.2039 20.9811 16.0197 21.1131 15.8839C21.2451 15.7481 21.4241 15.6718 21.6108 15.6718Z" fill="white"/>
<path d="M16.6925 8.04983C16.4292 6.6048 15.4443 5.59452 14.7743 4.31109C13.7059 2.26492 13.6206 1.2048 13.6206 1.2048C13.6206 1.2048 13.535 2.26492 12.4666 4.31109C11.7966 5.59452 10.8117 6.6048 10.5485 8.04983C10.4255 8.7081 10.5279 9.38986 10.8384 9.9792C11.1488 10.5685 11.648 11.0291 12.2512 11.2825C12.6759 11.5026 13.1449 11.6172 13.6205 11.6172C14.096 11.6172 14.565 11.5026 14.9898 11.2825C15.593 11.0291 16.0922 10.5686 16.4026 9.97923C16.7131 9.38988 16.8155 8.7081 16.6925 8.04983Z" fill="#009CDC"/>
<path d="M14.5701 10.8208C14.1484 10.8539 13.7247 10.7961 13.326 10.651C12.7687 10.4821 12.2855 10.1199 11.9586 9.62588C11.6316 9.13188 11.481 8.5366 11.5325 7.94127C11.6037 7.30382 11.7944 6.68664 12.0941 6.1239C11.6764 6.76847 11.2745 7.4039 11.1306 8.19293C11.0277 8.74346 11.1133 9.31367 11.3729 9.80657C11.6326 10.2995 12.0501 10.6846 12.5546 10.8965C12.9098 11.0806 13.302 11.1765 13.6997 11.1765C14.0974 11.1765 14.4895 11.0806 14.8447 10.8965C15.021 10.8233 15.1874 10.7272 15.3399 10.6105C15.0946 10.7186 14.8353 10.7894 14.5701 10.8208Z" fill="#004D8D"/>
<path d="M12.8303 1.2048C12.3909 1.95515 11.9018 2.6735 11.3665 3.35475C10.5513 4.37189 10.1697 5.08572 10.0484 5.78172C9.96793 6.12685 9.96793 6.48665 10.0484 6.83178H10.0515C10.5311 5.71887 11.4169 4.92366 12.1576 3.44892C12.5263 2.75506 12.7551 1.99179 12.8303 1.2048Z" fill="#8ABB2A"/>
<path d="M10.0483 5.78172C10.1696 5.08572 10.5513 4.37189 11.3664 3.35475C11.9017 2.6735 12.3908 1.95515 12.8303 1.2048C12.8303 1.2048 11.0938 1.83063 10.1385 3.29349C9.66034 4.02259 9.37009 4.86475 9.29501 5.7409C9.21993 6.61706 9.36248 7.49847 9.70928 8.3024C9.73429 7.79433 9.85028 7.29537 10.0514 6.83063H10.0483C9.96806 6.48587 9.96806 6.12648 10.0483 5.78172Z" fill="#248332"/>
<path d="M21.6656 7.46287C20.5688 7.55612 18.9463 6.42401 17.3159 4.05715C15.6854 1.6903 14.4792 1.17715 14.4792 1.17715C14.5617 1.99278 14.7916 2.78536 15.1571 3.51407C16.3568 5.98012 17.7224 8.23064 22.5445 8.30173C22.2351 8.04093 21.9416 7.76077 21.6656 7.46287Z" fill="#248332"/>
<path d="M17.3159 4.05807C18.9464 6.42424 20.5688 7.55521 21.6657 7.46378C21.0347 6.80984 20.0385 5.70195 18.5898 3.89098C16.491 1.26767 14.4797 1.17944 14.4797 1.17944C14.4797 1.17944 15.6854 1.6919 17.3159 4.05807Z" fill="#8ABB2A"/>
<path d="M43.4983 26.3008V23.3369H44.1204V25.7801H45.3167V26.3008H43.4983Z" fill="#3E3E54"/>
<path d="M47.8123 26.3052H47.3236L47.2425 26.2085C47.174 26.2238 47.097 26.2384 47.0121 26.2521C46.9272 26.2658 46.8432 26.28 46.7613 26.2939C46.6793 26.3079 46.602 26.3186 46.5304 26.3262C46.4589 26.3337 46.4018 26.3376 46.36 26.3376C46.2537 26.3492 46.1463 26.3362 46.0455 26.2995C45.9448 26.2627 45.8533 26.2033 45.7778 26.1255C45.6531 25.948 45.5928 25.7312 45.6074 25.5127V23.3369H46.2294V25.4939C46.2294 25.5589 46.2305 25.6117 46.2338 25.654C46.2346 25.6898 46.2463 25.7245 46.2672 25.7531C46.2903 25.78 46.3216 25.798 46.356 25.8041C46.4126 25.8146 46.4701 25.8192 46.5275 25.8178C46.5753 25.817 46.6229 25.8131 46.6702 25.8059C46.7268 25.7984 46.7861 25.7895 46.8479 25.7785L47.0307 25.7463C47.0901 25.7358 47.1418 25.7271 47.1863 25.7207V23.3369H47.8083L47.8123 26.3052Z" fill="#3E3E54"/>
<path d="M50.1197 26.3051L50.0389 26.2085C49.9704 26.2237 49.895 26.2382 49.8127 26.2521C49.7305 26.2663 49.6498 26.28 49.5708 26.2939C49.4917 26.3079 49.4179 26.3186 49.3486 26.3262C49.2935 26.333 49.2381 26.3368 49.1826 26.3376C49.076 26.349 48.9683 26.3358 48.8673 26.2991C48.7663 26.2625 48.6744 26.2031 48.5983 26.1255C48.4723 25.9486 48.4111 25.7315 48.4257 25.5127V24.1623C48.4114 23.9437 48.4715 23.7267 48.5959 23.5488C48.6716 23.4711 48.7631 23.4118 48.8639 23.3752C48.9647 23.3385 49.0721 23.3255 49.1784 23.3369H49.7069C49.8604 23.3306 50.0128 23.3665 50.1484 23.4409C50.2772 23.5278 50.3741 23.6566 50.4236 23.8066L49.9309 23.9911C49.9154 23.946 49.8855 23.9077 49.846 23.8825C49.805 23.8643 49.7605 23.8558 49.7158 23.8576H49.3486C49.2907 23.856 49.2329 23.8606 49.176 23.8713C49.1417 23.8774 49.1104 23.8952 49.0871 23.9218C49.0663 23.9506 49.0546 23.9852 49.0535 24.021C49.0504 24.0626 49.0493 24.1157 49.0493 24.1799V25.4935C49.0493 25.5584 49.0504 25.6112 49.0535 25.6535C49.0545 25.6893 49.0662 25.724 49.0871 25.7527C49.1112 25.78 49.1437 25.798 49.1791 25.8037C49.2367 25.8141 49.2952 25.8187 49.3537 25.8174C49.4003 25.8167 49.4467 25.8127 49.4928 25.8055C49.5463 25.7979 49.6025 25.789 49.6607 25.7781L49.8329 25.7458C49.89 25.7353 49.9407 25.7266 49.9855 25.7202V25.1122H49.5372V24.5911H50.5503V26.3054L50.1197 26.3051Z" fill="#3E3E54"/>
<path d="M52.8528 26.3051L52.7718 26.2084C52.7033 26.2237 52.6279 26.2382 52.5456 26.2521C52.4634 26.2663 52.3827 26.28 52.3039 26.2939C52.225 26.3079 52.1508 26.3186 52.0817 26.3262C52.0266 26.333 51.9712 26.3368 51.9158 26.3376C51.8092 26.3489 51.7015 26.3358 51.6004 26.2991C51.4994 26.2624 51.4075 26.2031 51.3315 26.1255C51.2055 25.9485 51.1443 25.7315 51.1588 25.5127V24.1623C51.1444 23.9436 51.2047 23.7266 51.3292 23.5488C51.4049 23.4711 51.4964 23.4118 51.5971 23.3751C51.6978 23.3385 51.8053 23.3254 51.9115 23.3369H52.4401C52.5936 23.3306 52.7461 23.3665 52.8817 23.4409C53.0105 23.5279 53.1073 23.6566 53.1568 23.8066L52.6642 23.9911C52.6486 23.946 52.6186 23.9077 52.5791 23.8825C52.5382 23.8643 52.4938 23.8558 52.4492 23.8576H52.0817C52.0239 23.856 51.966 23.8606 51.9091 23.8713C51.8748 23.8774 51.8435 23.8952 51.8202 23.9218C51.7994 23.9506 51.7877 23.9852 51.7867 24.021C51.7836 24.0626 51.7825 24.1156 51.7825 24.1799V25.4935C51.7825 25.5584 51.7825 25.6112 51.7867 25.6535C51.7876 25.6893 51.7993 25.724 51.8202 25.7527C51.8443 25.78 51.8768 25.798 51.9122 25.8036C51.9698 25.814 52.0283 25.8186 52.0868 25.8174C52.1334 25.8167 52.1799 25.8127 52.2259 25.8055C52.2794 25.7979 52.3356 25.789 52.3939 25.778L52.566 25.7458C52.6231 25.7353 52.6738 25.7266 52.7187 25.7202V25.1122H52.2699V24.5911H53.283V26.3054L52.8528 26.3051Z" fill="#3E3E54"/>
<path d="M55.6301 26.3008L55.3344 25.4571H54.4382L54.1558 26.3008H53.502L54.6083 23.3369H55.1726L56.2835 26.3008H55.6301ZM54.882 24.1481L54.6179 24.9365H55.1551L54.882 24.1481Z" fill="#3E3E54"/>
<path d="M58.0852 26.3051L58.0048 26.2085C57.9359 26.2238 57.8608 26.2384 57.7786 26.2521C57.6964 26.2658 57.6158 26.28 57.5367 26.2939C57.4576 26.3079 57.3834 26.3186 57.3145 26.3262C57.2594 26.333 57.204 26.3368 57.1485 26.3376C57.0419 26.349 56.9341 26.3358 56.833 26.2991C56.7319 26.2625 56.6399 26.2031 56.5638 26.1255C56.4381 25.9484 56.3771 25.7314 56.3916 25.5127V24.1623C56.3773 23.9436 56.4375 23.7267 56.5618 23.5488C56.6375 23.4711 56.729 23.4118 56.8298 23.3751C56.9306 23.3385 57.038 23.3254 57.1443 23.3369H57.6729C57.8262 23.3305 57.9785 23.3665 58.1139 23.4409C58.243 23.5276 58.34 23.6564 58.3896 23.8066L57.8968 23.9911C57.8813 23.9459 57.8512 23.9076 57.8115 23.8825C57.7706 23.8643 57.7263 23.8558 57.6817 23.8576H57.3145C57.2567 23.856 57.1988 23.8606 57.1419 23.8713C57.1076 23.8774 57.0763 23.8952 57.053 23.9218C57.0321 23.9505 57.0204 23.9852 57.0195 24.021C57.0164 24.0626 57.0148 24.1156 57.0148 24.1799V25.4935C57.0148 25.5584 57.0164 25.6112 57.0195 25.6535C57.0203 25.6893 57.032 25.724 57.053 25.7527C57.077 25.7801 57.1095 25.7981 57.145 25.8037C57.2026 25.8141 57.2611 25.8187 57.3196 25.8174C57.366 25.8167 57.4124 25.8127 57.4582 25.8055C57.5122 25.7979 57.568 25.789 57.6266 25.7781L57.7988 25.7458C57.8555 25.7353 57.9066 25.7266 57.9515 25.7202V25.1122H57.5031V24.5911H58.5158V26.3054L58.0852 26.3051Z" fill="#3E3E54"/>
<path d="M59.1647 26.3008V23.3369H60.9838V23.8581H59.7876V24.4571H60.8045V24.9778H59.7876V25.7801H60.9838V26.3008H59.1647Z" fill="#3E3E54"/>
<path d="M64.209 25.4094C64.2098 25.5319 64.1878 25.6535 64.1442 25.7675C64.1019 25.8781 64.037 25.978 63.9538 26.0603C63.8635 26.1479 63.7567 26.2155 63.6401 26.259C63.5024 26.3105 63.3567 26.3356 63.2102 26.333C63.1298 26.333 63.0569 26.3314 62.9929 26.3282C62.9289 26.325 62.8647 26.3193 62.8001 26.3099C62.7314 26.2997 62.6633 26.2852 62.5964 26.2663C62.5248 26.2462 62.4412 26.2177 62.3455 26.181L62.2918 25.6647C62.3333 25.6798 62.3849 25.6951 62.4462 25.7118C62.5075 25.7284 62.5732 25.7435 62.6437 25.7575C62.7141 25.7714 62.7867 25.7849 62.8632 25.7954C62.9368 25.8057 63.011 25.8109 63.0853 25.811C63.1536 25.8112 63.2218 25.8051 63.2891 25.7927C63.3488 25.7823 63.4058 25.7596 63.4568 25.7259C63.504 25.6945 63.5432 25.652 63.5712 25.6018C63.6018 25.5416 63.6165 25.4742 63.6139 25.4064C63.6139 25.3234 63.5599 25.2542 63.4526 25.1991C63.2908 25.1217 63.1247 25.0541 62.9551 24.9968C62.8661 24.9648 62.7799 24.9248 62.6977 24.8772C62.6135 24.8289 62.5366 24.7684 62.469 24.6976C62.4001 24.6241 62.3447 24.5384 62.3055 24.4446C62.2618 24.3353 62.2405 24.2178 62.2431 24.0996C62.236 23.9524 62.2761 23.8068 62.3571 23.6852C62.429 23.5851 62.5216 23.5026 62.6283 23.4439C62.7284 23.3886 62.8365 23.3506 62.9485 23.3312C63.035 23.315 63.1227 23.3059 63.2106 23.3038C63.2885 23.3034 63.3663 23.3086 63.4435 23.3195C63.5158 23.3303 63.5876 23.3448 63.6585 23.363C63.7321 23.382 63.8047 23.4049 63.876 23.4315C63.9492 23.4588 64.029 23.4877 64.1155 23.5182L64.0124 23.949C63.896 23.9243 63.778 23.8974 63.6585 23.8681C63.5396 23.8391 63.4179 23.8245 63.2957 23.8245C63.1712 23.8148 63.0469 23.8454 62.9403 23.9122C62.9084 23.9315 62.8815 23.9583 62.8617 23.9904C62.8419 24.0224 62.8298 24.0589 62.8263 24.0967C62.8261 24.139 62.8361 24.1807 62.8552 24.2181C62.8743 24.2556 62.9021 24.2877 62.936 24.3115C63.0401 24.3845 63.154 24.4413 63.2742 24.4802C63.3853 24.5202 63.4963 24.5623 63.6074 24.6073C63.7154 24.6496 63.8171 24.7071 63.9098 24.778C63.9985 24.8463 64.0726 24.9327 64.1271 25.032C64.1858 25.1483 64.2141 25.2784 64.209 25.4094Z" fill="#3E3E54"/>
<path d="M65.7241 23.8581V26.3008H65.1021V23.8581H64.3496V23.3369H66.4728V23.8581H65.7241Z" fill="#3E3E54"/>
<path d="M68.6357 26.0887C68.56 26.1664 68.4685 26.2257 68.3677 26.2624C68.2669 26.2991 68.1594 26.3122 68.0531 26.3008H67.3544C67.2481 26.3123 67.1407 26.2992 67.0399 26.2625C66.9392 26.2258 66.8477 26.1664 66.7721 26.0887C66.6476 25.9111 66.5873 25.6943 66.6017 25.4759V24.1344C66.5872 23.9158 66.6475 23.699 66.7721 23.5213C66.8477 23.4436 66.9392 23.3843 67.04 23.3476C67.1407 23.311 67.2481 23.2979 67.3544 23.3095H68.0531C68.1594 23.298 68.2669 23.3111 68.3677 23.3477C68.4684 23.3844 68.56 23.4437 68.6357 23.5213C68.7601 23.6991 68.8203 23.9159 68.8058 24.1344V25.4759C68.8202 25.6943 68.76 25.911 68.6357 26.0887ZM68.1829 24.1529C68.1829 24.0882 68.1818 24.0352 68.1787 23.9929C68.1778 23.9571 68.166 23.9225 68.1451 23.8939C68.1221 23.8669 68.0907 23.849 68.0562 23.8432C67.9997 23.8325 67.9422 23.8278 67.8847 23.8292H67.5282C67.4705 23.8278 67.4129 23.8325 67.3562 23.8432C67.3218 23.8491 67.2904 23.867 67.2673 23.8939C67.2467 23.9228 67.2343 23.9571 67.2316 23.9929C67.2267 24.0461 67.2245 24.0995 67.2249 24.1529V25.4571C67.2245 25.5105 67.2267 25.5639 67.2316 25.6171C67.2343 25.653 67.2467 25.6873 67.2673 25.7163C67.2904 25.7432 67.3218 25.761 67.3562 25.7668C67.4129 25.7777 67.4705 25.7825 67.5282 25.781H67.8847C67.9422 25.7825 67.9997 25.7777 68.0562 25.7668C68.0907 25.7611 68.1221 25.7433 68.1451 25.7163C68.1661 25.6876 68.1778 25.653 68.1787 25.6171C68.1818 25.5757 68.1829 25.5229 68.1829 25.4571V24.1529Z" fill="#3E3E54"/>
<path d="M71.2619 26.3008L70.5652 25.365C70.4876 25.3588 70.4059 25.3488 70.3194 25.3351C70.233 25.3214 70.1468 25.3067 70.0602 25.2914V26.3008H69.4381V23.3424H69.9269L70.0026 23.4338L70.3699 23.3504C70.4921 23.323 70.6169 23.3092 70.742 23.3092C71.2826 23.3092 71.5529 23.5842 71.5527 24.1342V24.5492C71.5577 24.7095 71.5264 24.8688 71.4612 25.0144C71.3996 25.1412 71.2957 25.2409 71.1686 25.2955L71.9202 26.3012L71.2619 26.3008ZM70.9297 24.1522C70.9297 24.0876 70.9281 24.0343 70.9249 23.9922C70.9241 23.9564 70.9124 23.9218 70.8915 23.8932C70.8685 23.8663 70.8371 23.8483 70.8027 23.8425C70.7461 23.8318 70.6886 23.8271 70.6311 23.8285C70.5362 23.8293 70.4415 23.8387 70.3481 23.8564L70.0653 23.907V24.8059C70.175 24.8212 70.2837 24.8327 70.3905 24.8402C70.4974 24.8478 70.5778 24.8521 70.6311 24.8521C70.6886 24.8535 70.7461 24.8487 70.8027 24.8379C70.8371 24.8321 70.8685 24.8141 70.8915 24.7872C70.9124 24.7586 70.9241 24.724 70.9249 24.6882C70.9281 24.6469 70.9297 24.5936 70.9297 24.5282V24.1522Z" fill="#3E3E54"/>
<path d="M73.9803 26.3008L73.6846 25.4571H72.7891L72.5067 26.3008H71.8524L72.959 23.3369H73.5235L74.6344 26.3008H73.9803ZM73.232 24.1481L72.9677 24.9365H73.5053L73.232 24.1481Z" fill="#3E3E54"/>
<path d="M76.4353 26.3051L76.3546 26.2084C76.2857 26.2238 76.2107 26.2384 76.1285 26.2521C76.0463 26.2658 75.9658 26.28 75.8867 26.2939C75.8076 26.3079 75.7332 26.3186 75.6646 26.3262C75.6096 26.3329 75.5542 26.3368 75.4988 26.3376C75.3922 26.349 75.2844 26.3359 75.1833 26.2992C75.0822 26.2625 74.9902 26.2032 74.9141 26.1255C74.7883 25.9485 74.7273 25.7314 74.7417 25.5127V24.1623C74.7273 23.9436 74.7876 23.7266 74.9121 23.5488C74.9877 23.4711 75.0793 23.4118 75.18 23.3751C75.2807 23.3385 75.3881 23.3254 75.4944 23.3369H76.0229C76.1764 23.3306 76.3287 23.3665 76.4641 23.4409C76.5931 23.5277 76.6902 23.6565 76.7398 23.8066L76.2471 23.9911C76.2315 23.9459 76.2014 23.9076 76.1618 23.8825C76.1209 23.8643 76.0765 23.8558 76.032 23.8576H75.6646C75.6067 23.856 75.5489 23.8606 75.492 23.8713C75.4577 23.8774 75.4264 23.8952 75.4031 23.9218C75.3823 23.9505 75.3706 23.9852 75.3695 24.021C75.3664 24.0626 75.3649 24.1156 75.3649 24.1799V25.4935C75.3649 25.5584 75.3664 25.6112 75.3695 25.6535C75.3705 25.6893 75.3822 25.724 75.4031 25.7527C75.4271 25.7801 75.4596 25.7981 75.4951 25.8036C75.5527 25.814 75.6112 25.8186 75.6697 25.8174C75.7162 25.8167 75.7626 25.8127 75.8085 25.8055C75.8623 25.7979 75.9183 25.789 75.9767 25.778L76.1491 25.7458C76.2055 25.7353 76.2569 25.7266 76.3015 25.7202V25.1122H75.8534V24.5911H76.8658V26.3054L76.4353 26.3051Z" fill="#3E3E54"/>
<path d="M77.515 26.3008V23.3369H79.3341V23.8581H78.138V24.4571H79.1548V24.9778H78.138V25.7801H79.3341V26.3008H77.515Z" fill="#3E3E54"/>
<path d="M46.1352 8.03131C46.2293 8.06188 46.308 8.12938 46.3542 8.2192C46.403 8.31084 46.4171 8.41784 46.3938 8.51954L43.6167 20.2418C43.6083 20.3267 43.5687 20.4051 43.506 20.4609C43.4433 20.5168 43.3623 20.5459 43.2794 20.5424C43.195 20.5475 43.1119 20.5192 43.0471 20.4633C42.9823 20.4074 42.9407 20.3282 42.9309 20.2418L41.8867 15.8336L40.8525 20.2418C40.8426 20.3282 40.801 20.4074 40.7362 20.4633C40.6714 20.5192 40.5883 20.5475 40.5039 20.5424C40.4211 20.546 40.34 20.5169 40.2773 20.461C40.2146 20.4051 40.175 20.3267 40.1667 20.2418L37.3896 8.51954C37.3662 8.41786 37.3802 8.31087 37.4289 8.2192C37.4753 8.12948 37.554 8.06203 37.6482 8.03131C37.6928 8.01903 37.7394 8.01656 37.7849 8.02409C37.8305 8.03161 37.874 8.04895 37.9126 8.07497C37.9549 8.10165 37.9912 8.13721 38.0193 8.1793C38.0473 8.2214 38.0665 8.2691 38.0754 8.31931L40.5033 18.5881L41.5252 14.28L40.1651 8.52C40.1498 8.47058 40.1444 8.41847 40.1493 8.36685C40.1541 8.31522 40.1691 8.26514 40.1933 8.21965C40.2396 8.12988 40.3182 8.0624 40.4124 8.03177C40.4588 8.01918 40.5072 8.01655 40.5547 8.02407C40.6021 8.03158 40.6475 8.04906 40.6881 8.07543C40.7304 8.10211 40.7668 8.13766 40.7948 8.17976C40.8229 8.22186 40.842 8.26956 40.8509 8.31977L41.8858 12.7275L42.93 8.31931C42.9392 8.26822 42.9584 8.2196 42.9864 8.17638C43.0145 8.13316 43.0507 8.09625 43.093 8.06788C43.1328 8.03956 43.1785 8.0214 43.2264 8.01488C43.2743 8.00836 43.323 8.01367 43.3685 8.03039C43.4138 8.04358 43.4558 8.0666 43.4917 8.09791C43.5277 8.12921 43.5566 8.16808 43.5767 8.21188C43.6249 8.30605 43.6388 8.41485 43.6158 8.51862L42.2557 14.2786L43.2777 18.5867L45.6944 8.31748C45.7033 8.26722 45.7225 8.21947 45.7507 8.17736C45.7788 8.13525 45.8153 8.09973 45.8577 8.07314C45.8986 8.04675 45.9444 8.0294 45.9921 8.0222C46.0399 8.015 46.0886 8.01811 46.1352 8.03131Z" fill="#004D8D"/>
<path d="M53.7568 20.1424C53.7607 20.2483 53.7245 20.3517 53.6557 20.4306C53.6248 20.4666 53.5866 20.4953 53.5439 20.5147C53.5012 20.5342 53.4549 20.5439 53.4082 20.5433C53.3598 20.5447 53.3116 20.5354 53.267 20.516C53.2224 20.4965 53.1823 20.4674 53.1496 20.4306C53.0809 20.3517 53.0446 20.2483 53.0486 20.1424V17.211C53.0507 16.5415 52.7963 15.8982 52.3405 15.4203C52.1206 15.1932 51.8613 15.0105 51.576 14.8816C51.2787 14.7495 50.9583 14.6813 50.6345 14.6813C50.3107 14.6813 49.9903 14.7495 49.693 14.8816C49.11 15.1379 48.6478 15.6191 48.4057 16.2219C48.2777 16.5349 48.2128 16.8714 48.2149 17.211V20.1424C48.2188 20.2483 48.1826 20.3517 48.1138 20.4306C48.0829 20.4666 48.0447 20.4953 48.002 20.5147C47.9593 20.5342 47.913 20.5439 47.8663 20.5433C47.8179 20.5447 47.7697 20.5354 47.7251 20.516C47.6805 20.4965 47.6404 20.4674 47.6077 20.4306C47.539 20.3517 47.5027 20.2483 47.5066 20.1424V8.41964C47.5028 8.31372 47.539 8.2104 47.6077 8.13142C47.6404 8.09462 47.6805 8.06551 47.7251 8.04607C47.7697 8.02662 47.8179 8.01729 47.8663 8.01873C47.913 8.01811 47.9593 8.02788 48.0021 8.04737C48.0448 8.06686 48.0829 8.09561 48.1138 8.13165C48.1824 8.21086 48.2187 8.31429 48.2149 8.42033V15.107L48.4286 14.8692C48.7067 14.5538 49.0477 14.3038 49.4284 14.1364C50.199 13.8102 51.0638 13.811 51.8338 14.1387C52.2111 14.3053 52.5514 14.5497 52.8335 14.8567C53.1284 15.1661 53.3615 15.532 53.5195 15.9337C53.6778 16.3397 53.7579 16.7735 53.7555 17.211L53.7568 20.1424Z" fill="#004D8D"/>
<path d="M60.3495 14.0802C60.3963 14.0793 60.4427 14.0883 60.486 14.1066C60.5293 14.1249 60.5684 14.1522 60.601 14.1867C60.635 14.2221 60.6617 14.2642 60.6794 14.3105C60.6971 14.3567 60.7054 14.4063 60.7039 14.456V20.2041C60.7062 20.3063 60.6692 20.4054 60.601 20.4798C60.5689 20.5153 60.53 20.5437 60.4867 20.5631C60.4435 20.5824 60.3968 20.5925 60.3496 20.5925C60.3024 20.5925 60.2558 20.5824 60.2125 20.5631C60.1693 20.5437 60.1304 20.5153 60.0982 20.4798C60.0301 20.4054 59.9932 20.3063 59.9956 20.2041V19.4025L59.7923 19.6395C59.5255 19.9574 59.1882 20.2044 58.8088 20.3595C58.4351 20.513 58.0363 20.5917 57.634 20.5913C57.234 20.5922 56.8381 20.5091 56.4705 20.3472C56.0962 20.1818 55.7579 19.9408 55.4756 19.6386C55.1867 19.3349 54.9593 18.9752 54.8067 18.5803C54.4995 17.7731 54.4995 16.8764 54.8067 16.0692C54.9606 15.6771 55.1879 15.3198 55.4756 15.0178C55.7572 14.7166 56.0958 14.4779 56.4705 14.3166C56.8391 14.1585 57.2346 14.0777 57.634 14.0786C58.0358 14.0781 58.4342 14.1545 58.8088 14.304C59.1886 14.4553 59.5264 14.7004 59.7923 15.0178L59.9947 15.2558V14.4544C59.9932 14.4047 60.0015 14.3552 60.0192 14.3089C60.0368 14.2626 60.0634 14.2205 60.0973 14.1851C60.1302 14.1508 60.1695 14.1238 60.2128 14.1057C60.2562 14.0877 60.3027 14.079 60.3495 14.0802ZM57.6404 19.8034C57.9549 19.805 58.2661 19.739 58.5544 19.6098C58.8361 19.485 59.0914 19.3047 59.3058 19.0791C59.5205 18.8516 59.6917 18.5845 59.8105 18.2919C59.9348 17.9875 59.9977 17.6604 59.9956 17.3303C59.9976 16.6733 59.7505 16.0413 59.3069 15.5687C59.0925 15.3429 58.8373 15.1625 58.5555 15.0377C58.2658 14.91 57.9539 14.8441 57.6388 14.8441C57.3236 14.8441 57.0117 14.91 56.722 15.0377C56.4425 15.1636 56.1893 15.3439 55.9764 15.5687C55.5324 16.0412 55.2849 16.6731 55.2863 17.3303C55.2843 17.6604 55.3473 17.9875 55.4716 18.2919C55.5903 18.5846 55.7615 18.8517 55.9764 19.0791C56.1894 19.3037 56.4426 19.484 56.722 19.6098C57.0115 19.74 57.3245 19.806 57.6404 19.8034Z" fill="#004D8D"/>
<path d="M63.1994 20.5424C63.151 20.5439 63.1028 20.5346 63.0582 20.5151C63.0135 20.4957 62.9735 20.4665 62.9408 20.4297C62.8719 20.3508 62.8356 20.2475 62.8395 20.1415V8.41965C62.8356 8.31369 62.872 8.21032 62.9408 8.13143C62.9735 8.09459 63.0135 8.06545 63.0582 8.04601C63.1028 8.02656 63.151 8.01726 63.1994 8.01874C63.2461 8.01814 63.2924 8.0279 63.335 8.04734C63.3777 8.06679 63.4158 8.09547 63.4467 8.13143C63.5155 8.21035 63.5518 8.31372 63.5478 8.41965V20.1424C63.5518 20.2483 63.5156 20.3517 63.4467 20.4306C63.4157 20.4664 63.3776 20.4949 63.3349 20.5142C63.2922 20.5335 63.246 20.5431 63.1994 20.5424Z" fill="#004D8D"/>
<path d="M67.9883 20.5424C67.5883 20.5434 67.1923 20.4604 66.8246 20.2983C66.2567 20.0409 65.7739 19.619 65.4349 19.0842C65.0959 18.5494 64.9154 17.9248 64.9154 17.2863C64.9154 16.6478 65.0959 16.0231 65.4349 15.4883C65.7739 14.9535 66.2567 14.5317 66.8246 14.2743C67.1923 14.112 67.5883 14.0289 67.9883 14.0299C68.3056 14.0293 68.6208 14.0822 68.9214 14.1867C69.2183 14.2895 69.4986 14.4372 69.7532 14.6249C70.0098 14.8147 70.2356 15.0452 70.4221 15.3077C70.615 15.578 70.765 15.8781 70.8665 16.1968C70.985 16.5471 71.0458 16.9153 71.0464 17.2862C71.0488 17.3881 71.0125 17.487 70.9451 17.5618C70.9143 17.5979 70.8763 17.6266 70.8336 17.6461C70.791 17.6655 70.7447 17.6752 70.6981 17.6745H65.6505C65.6929 17.9653 65.7863 18.2458 65.926 18.5024C66.061 18.7508 66.2358 18.9739 66.4432 19.1623C66.6518 19.35 66.8917 19.4971 67.1514 19.5966C67.419 19.7007 67.7029 19.7534 67.989 19.7522C68.5518 19.7577 69.0965 19.5479 69.5175 19.1637C69.5909 19.0996 69.6859 19.0681 69.7819 19.0761C69.829 19.0807 69.8745 19.0967 69.9145 19.1228C69.9546 19.1489 69.9881 19.1844 70.0122 19.2263C70.0696 19.3072 70.0957 19.4072 70.0853 19.5067C70.0749 19.6063 70.0288 19.6983 69.956 19.7648C69.6827 20.0083 69.371 20.202 69.0343 20.3376C68.7013 20.473 68.3464 20.5425 67.9883 20.5424ZM70.3377 16.8853C70.3224 16.811 70.3057 16.7367 70.2868 16.6624C70.268 16.5881 70.2477 16.5182 70.2253 16.4519C70.146 16.2109 70.0282 15.9852 69.8767 15.784C69.7291 15.5882 69.555 15.4152 69.3597 15.2702C69.1641 15.1255 68.9479 15.0129 68.7188 14.9362C68.4865 14.858 68.2436 14.8183 67.9992 14.8187C67.7134 14.8176 67.4297 14.8701 67.1621 14.9735C66.9024 15.0725 66.6624 15.2192 66.4536 15.4064C66.2464 15.5934 66.0716 15.8151 65.9364 16.0622C65.7968 16.317 65.7035 16.5958 65.6611 16.885L70.3377 16.8853Z" fill="#004D8D"/>
<path d="M73.8777 20.5424C73.6466 20.5444 73.4181 20.493 73.209 20.392C73.0028 20.292 72.8176 20.1517 72.6638 19.9787C72.3339 19.6106 72.1531 19.1267 72.1581 18.6261V8.41964C72.1543 8.31377 72.1904 8.21048 72.259 8.13142C72.2917 8.09462 72.3317 8.06551 72.3763 8.04607C72.421 8.02662 72.4691 8.01729 72.5176 8.01873C72.5643 8.01809 72.6106 8.02782 72.6533 8.04727C72.696 8.06671 72.7341 8.09542 72.7651 8.13142C72.8338 8.2104 72.87 8.31372 72.8662 8.41964V18.6261C72.8582 18.9223 72.9631 19.2099 73.1585 19.4276C73.2484 19.5322 73.3593 19.6154 73.4834 19.6717C73.6075 19.728 73.742 19.756 73.8777 19.7538H78.0595C78.1062 19.7531 78.1525 19.7628 78.1952 19.7823C78.2379 19.8017 78.2761 19.8305 78.307 19.8665C78.3743 19.9412 78.4106 20.0401 78.4081 20.1419C78.4121 20.2479 78.3758 20.3513 78.307 20.4302C78.276 20.4662 78.2379 20.4949 78.1952 20.5143C78.1525 20.5338 78.1062 20.5435 78.0595 20.5428L73.8777 20.5424Z" fill="#004D8D"/>
<path d="M81.4664 20.5424C81.0727 20.5441 80.6808 20.4871 80.3029 20.3732C79.9532 20.2706 79.6212 20.1122 79.3192 19.9038C79.1774 19.8021 79.0437 19.689 78.9193 19.5655C78.8041 19.4498 78.704 19.3192 78.6216 19.1769C78.4379 18.8816 78.3403 18.5384 78.3403 18.1879V10.373C78.3403 10.0225 78.4379 9.67926 78.6216 9.384C78.704 9.2417 78.8041 9.11107 78.9193 8.99542C79.0437 8.87194 79.1774 8.75882 79.3192 8.65713C79.6212 8.44861 79.9532 8.29012 80.3029 8.18742C80.6808 8.07377 81.0727 8.01688 81.4664 8.01851C81.8583 8.01658 82.2484 8.07348 82.6244 8.18742C82.975 8.2923 83.3084 8.45063 83.6135 8.65713C83.754 8.7578 83.8857 8.871 84.0069 8.99542C84.1207 9.11403 84.2224 9.24422 84.3106 9.384C84.4899 9.68129 84.587 10.0232 84.5917 10.373V18.1881C84.5871 18.5379 84.4899 18.8799 84.3106 19.1771C84.2224 19.3169 84.1207 19.4471 84.0069 19.5657C83.8857 19.6901 83.754 19.8033 83.6135 19.904C83.3084 20.1104 82.975 20.2687 82.6244 20.3735C82.2484 20.4875 81.8584 20.5444 81.4664 20.5424ZM81.4664 8.80776C81.1417 8.80592 80.8183 8.85023 80.5053 8.93942C80.2184 9.01916 79.9467 9.14821 79.7016 9.32113C79.5107 9.45201 79.3465 9.62005 79.2183 9.81576C79.1104 9.98056 79.0517 10.1743 79.0497 10.373V18.1881C79.0517 18.3868 79.1104 18.5806 79.2183 18.7454C79.3464 18.9411 79.5106 19.1092 79.7016 19.24C79.9467 19.4129 80.2184 19.542 80.5053 19.6217C80.8183 19.7109 81.1417 19.7552 81.4664 19.7534C81.7893 19.7555 82.1108 19.7112 82.4218 19.6217C82.7096 19.5396 82.9829 19.4108 83.2313 19.24C83.6657 18.9224 83.883 18.572 83.8832 18.1886V10.373C83.8832 9.98079 83.6659 9.63032 83.2313 9.32159C82.9829 9.15083 82.7096 9.02197 82.4218 8.93988C82.1108 8.85027 81.7893 8.8058 81.4664 8.80776Z" fill="#004D8D"/>
</svg>
