<svg width="18" height="19" viewBox="0 0 18 19" fill="none" xmlns="http://www.w3.org/2000/svg">
<path d="M15.5873 10.1242L15.5673 10.2911L15.6991 10.3953L17.6316 11.9228L17.6315 11.9229L17.6376 11.9274C17.6949 11.9703 17.7184 12.0451 17.6721 12.1301L15.8221 15.3329L15.8221 15.3329L15.8196 15.3372C15.7778 15.4125 15.6948 15.4386 15.6248 15.4121L13.324 14.4871L13.1665 14.4238L13.0312 14.5262C12.5739 14.8719 12.0757 15.1703 11.5366 15.3903L11.377 15.4554L11.3529 15.626L11.0057 18.0792L11.0055 18.0792L11.0043 18.0914C10.9979 18.1553 10.9435 18.2147 10.8515 18.2147H7.14853C7.07302 18.2147 7.00351 18.1671 6.98129 18.0692L6.63555 15.626L6.61141 15.4554L6.45188 15.3903C5.91186 15.1699 5.42548 14.8829 4.95814 14.5269L4.82257 14.4236L4.66443 14.4871L2.37181 15.4088C2.28271 15.4354 2.2035 15.3997 2.1688 15.3372L2.16883 15.3372L2.16633 15.3329L0.318306 12.1335C0.280762 12.0582 0.303818 11.966 0.357264 11.9224L2.31108 10.3964L2.45062 10.2874L2.42264 10.1126C2.37907 9.84021 2.35698 9.5437 2.35698 9.25736C2.35698 8.97802 2.38935 8.68258 2.43421 8.40217L2.46219 8.22733L2.32265 8.11834L0.367031 6.59087L0.367066 6.59083L0.362365 6.5873C0.305136 6.54438 0.281611 6.46958 0.32792 6.38461L2.1779 3.18184L2.17793 3.18186L2.18037 3.17748C2.22216 3.10225 2.30525 3.07608 2.37523 3.10265L4.676 4.02758L4.83346 4.09088L4.96883 3.98853C5.42607 3.64281 5.92433 3.34444 6.46345 3.12439L6.62298 3.05928L6.64712 2.88867L6.99406 0.436983C7.00757 0.349548 7.06935 0.3 7.14853 0.3H10.8515C10.9399 0.3 11.0053 0.35864 11.0175 0.437021C11.0176 0.437327 11.0176 0.437633 11.0177 0.437939L11.3645 2.88867L11.3886 3.05928L11.5481 3.12439C12.0881 3.34481 12.5745 3.6318 13.0419 3.98786L13.1774 4.09115L13.3356 4.02758L15.6282 3.10592C15.7173 3.07929 15.7965 3.11501 15.8312 3.17748L15.8312 3.1775L15.8337 3.18184L17.6817 6.38121C17.7192 6.45649 17.6962 6.54868 17.6427 6.59229C17.6424 6.59254 17.6421 6.59279 17.6418 6.59304L15.6889 8.11834L15.5494 8.22733L15.5774 8.40216C15.621 8.67479 15.643 8.95976 15.643 9.25736C15.643 9.55504 15.621 9.84361 15.5873 10.1242ZM5.22849 9.25736C5.22849 11.3324 6.92498 13.0289 9 13.0289C11.075 13.0289 12.7715 11.3324 12.7715 9.25736C12.7715 7.18234 11.075 5.48585 9 5.48585C6.92498 5.48585 5.22849 7.18234 5.22849 9.25736Z" stroke="#3E3E54" stroke-width="0.6"/>
</svg>
