<svg width="28" height="28" viewBox="0 0 28 28" fill="none" xmlns="http://www.w3.org/2000/svg">
<path d="M22.9918 27.5206C17.0033 28.1598 10.9967 28.1598 5.00818 27.5206C2.6203 27.2658 0.734222 25.3797 0.47937 22.9916C-0.15979 17.0031 -0.15979 10.9967 0.47937 5.00818C0.734222 2.6203 2.6203 0.734222 5.00818 0.47937C10.9967 -0.15979 17.0031 -0.15979 22.9916 0.47937C25.3797 0.734222 27.2658 2.6203 27.5206 5.00818C28.1598 10.9967 28.1598 17.0031 27.5206 22.9916C27.2658 25.3797 25.3799 27.2658 22.9918 27.5206Z" fill="url(#paint0_linear)"/>
<path d="M25.9975 6.02101C25.7715 3.90208 24.098 2.22835 21.9788 2.00212C16.6647 1.43517 11.3349 1.43517 6.02077 2.00212C3.90184 2.22835 2.2281 3.90208 2.00188 6.02101C1.43492 11.3351 1.43492 16.665 2.00188 21.9789C2.2281 24.098 3.90184 25.7717 6.02077 25.9978C11.3349 26.5649 16.6647 26.5649 21.9786 25.9978C24.0978 25.7717 25.7715 24.098 25.9975 21.9789C26.5647 16.665 26.5647 11.3351 25.9975 6.02101Z" fill="url(#paint1_linear)"/>
<path d="M0.419434 22.4111C0.43866 22.6047 0.458527 22.7982 0.479248 22.9918C0.7341 25.3796 2.62018 27.2657 5.00827 27.5206C10.9968 28.1597 17.0032 28.1597 22.9917 27.5206C25.3798 27.2657 27.2657 25.3796 27.5205 22.9918C27.5412 22.7982 27.5611 22.6047 27.5805 22.4111H0.419434Z" fill="url(#paint2_linear)"/>
<path d="M27.2187 24.2578L9.1496 6.18848C8.74606 5.6619 8.11118 5.32202 7.39661 5.32202C6.17767 5.32202 5.18945 6.31003 5.18945 7.52896C5.18945 8.24374 5.52954 8.87863 6.05612 9.28195L24.0624 27.2885C25.5178 26.8042 26.6778 25.6859 27.2187 24.2578Z" fill="url(#paint3_linear)"/>
<path d="M9.25034 11.1838H5.54248V22.678L10.8036 27.9391C14.8671 28.093 18.9334 27.9539 22.9914 27.5207C23.7009 27.445 24.3654 27.2244 24.9568 26.8903L9.25034 11.1838Z" fill="url(#paint4_linear)"/>
<path d="M21.8427 12.1465C21.1644 11.4028 20.1879 10.9363 19.1025 10.9363C17.3856 10.9363 16.2776 11.5393 15.6181 12.0992L14.8916 11.1837H11.4751V22.6779L16.752 27.9548C18.8331 27.8871 20.9134 27.7422 22.9917 27.5205C25.3798 27.2656 27.2657 25.3795 27.5205 22.9917C27.691 21.395 27.8156 19.7971 27.895 18.1988L21.8427 12.1465Z" fill="url(#paint5_linear)"/>
<path d="M5.54297 11.1838H9.25061V22.678H5.54297V11.1838Z" fill="white"/>
<path d="M19.1025 10.9365C16.3854 10.9365 15.1919 12.4466 14.8916 12.9063V11.1839H11.4751V22.6781H15.183V16.9045C15.183 15.2361 15.9509 13.9384 17.4076 13.9384C18.8641 13.9384 19.1025 15.5538 19.1025 17.5402V22.6781H22.8104V14.6444C22.8104 12.5966 21.1503 10.9365 19.1025 10.9365Z" fill="white"/>
<path d="M9.60355 7.52917C9.60355 8.74811 8.61554 9.73611 7.39661 9.73611C6.17767 9.73611 5.18945 8.74811 5.18945 7.52917C5.18945 6.31024 6.17767 5.32202 7.39661 5.32202C8.61554 5.32202 9.60355 6.31024 9.60355 7.52917Z" fill="white"/>
<defs>
<linearGradient id="paint0_linear" x1="9.29655" y1="3.93675" x2="16.3785" y2="19.0889" gradientUnits="userSpaceOnUse">
<stop stop-color="#0077B5"/>
<stop offset="1" stop-color="#0066B2"/>
</linearGradient>
<linearGradient id="paint1_linear" x1="19.9215" y1="17.1767" x2="-20.7588" y2="-4.64578" gradientUnits="userSpaceOnUse">
<stop stop-color="#0066B2" stop-opacity="0"/>
<stop offset="1" stop-color="#07485E"/>
</linearGradient>
<linearGradient id="paint2_linear" x1="13.9999" y1="22.7405" x2="13.9999" y2="28.5924" gradientUnits="userSpaceOnUse">
<stop stop-color="#0066B2" stop-opacity="0"/>
<stop offset="1" stop-color="#07485E"/>
</linearGradient>
<linearGradient id="paint3_linear" x1="14.8396" y1="14.9721" x2="4.37036" y2="4.50289" gradientUnits="userSpaceOnUse">
<stop stop-color="#0066B2" stop-opacity="0"/>
<stop offset="1" stop-color="#07485E"/>
</linearGradient>
<linearGradient id="paint4_linear" x1="20.9861" y1="24.6986" x2="-0.0962452" y2="14.8162" gradientUnits="userSpaceOnUse">
<stop stop-color="#0066B2" stop-opacity="0"/>
<stop offset="1" stop-color="#07485E"/>
</linearGradient>
<linearGradient id="paint5_linear" x1="26.1149" y1="26.8653" x2="11.4279" y2="12.1784" gradientUnits="userSpaceOnUse">
<stop stop-color="#0066B2" stop-opacity="0"/>
<stop offset="1" stop-color="#07485E"/>
</linearGradient>
</defs>
</svg>
