<svg width="248" height="49" viewBox="0 0 248 49" fill="none" xmlns="http://www.w3.org/2000/svg">
<path d="M111.423 46.0214C106.958 46.0214 103.84 42.8778 103.84 38.3767V17.8962C103.84 13.3951 106.958 10.2515 111.423 10.2515H117.953C129.275 10.2515 137.185 17.6002 137.185 28.0966C137.185 38.6502 129.275 46.0214 117.953 46.0214H111.423ZM117.825 33.6347C121.514 33.6347 123.898 31.4607 123.898 28.0966C123.898 24.7815 121.514 22.6381 117.825 22.6381H117.298V33.6347H117.825Z" fill="#4B1212"/>
<path d="M111.207 45.6968C106.742 45.6968 103.624 42.5532 103.624 38.0521V17.5716C103.624 13.0705 106.742 9.92688 111.207 9.92688H117.737C129.061 9.92688 136.968 17.2756 136.968 27.772C136.968 38.3256 129.061 45.6968 117.737 45.6968H111.207ZM117.606 33.3121C121.296 33.3121 123.679 31.1381 123.679 27.7741C123.679 24.459 121.296 22.3156 117.606 22.3156H117.08V33.3121H117.606Z" fill="#4B1212"/>
<path d="M110.983 45.3722C106.518 45.3722 103.399 42.2286 103.399 37.7275V17.247C103.399 12.7459 106.518 9.60229 110.983 9.60229H117.513C128.836 9.60229 136.744 16.951 136.744 27.4474C136.744 38.001 128.836 45.3722 117.513 45.3722H110.983ZM117.39 32.9855C121.08 32.9855 123.463 30.8115 123.463 27.4474C123.463 24.1324 121.08 21.989 117.39 21.989H116.864V32.9855H117.39Z" fill="#4B1212"/>
<path d="M110.778 45.0476C106.313 45.0476 103.195 41.904 103.195 37.4029V16.9203C103.195 12.4193 106.313 9.27563 110.778 9.27563H117.309C128.63 9.27563 136.54 16.6244 136.54 27.1208C136.54 37.6744 128.63 45.0455 117.309 45.0455L110.778 45.0476ZM117.18 32.6609C120.87 32.6609 123.253 30.4869 123.253 27.1228C123.253 23.8077 120.87 21.6644 117.18 21.6644H116.654V32.6609H117.18Z" fill="#4B1212"/>
<path d="M110.558 44.7211C106.093 44.7211 102.975 41.5775 102.975 37.0764V16.5959C102.975 12.0948 106.093 8.95117 110.558 8.95117H117.088C128.412 8.95117 136.319 16.2999 136.319 26.7963C136.319 37.3499 128.412 44.7211 117.088 44.7211H110.558ZM116.959 32.3344C120.649 32.3344 123.032 30.1604 123.032 26.7963C123.032 23.4812 120.649 21.3378 116.959 21.3378H116.431V32.3344H116.959Z" fill="#4B1212"/>
<path d="M110.34 44.3965C105.875 44.3965 102.756 41.2529 102.756 36.7518V16.2713C102.756 11.7702 105.875 8.62659 110.34 8.62659H116.87C128.193 8.62659 136.101 15.9753 136.101 26.4717C136.101 37.0253 128.193 44.3965 116.87 44.3965H110.34ZM116.741 32.0098C120.431 32.0098 122.818 29.8419 122.818 26.4717C122.818 23.1566 120.435 21.0133 116.745 21.0133H116.219V32.0098H116.741Z" fill="#4B1212"/>
<path d="M110.125 44.0719C105.66 44.0719 102.542 40.9283 102.542 36.4272V15.9467C102.542 11.4456 105.66 8.302 110.125 8.302H116.655C127.979 8.302 135.887 15.6507 135.887 26.1471C135.887 36.7007 127.977 44.0719 116.655 44.0719H110.125ZM116.525 31.6791C120.212 31.6791 122.598 29.5051 122.598 26.141C122.598 22.8259 120.214 20.6826 116.525 20.6826H115.998V31.6791H116.525Z" fill="#4B1212"/>
<path d="M109.907 43.7474C105.442 43.7474 102.324 40.6038 102.324 36.1027V15.6223C102.324 11.1212 105.442 7.97754 109.907 7.97754H116.437C127.761 7.97754 135.668 15.3263 135.668 25.8227C135.668 36.3763 127.759 43.7474 116.437 43.7474H109.907ZM116.309 31.3608C119.998 31.3608 122.382 29.1868 122.382 25.8227C122.382 22.5076 119.998 20.3642 116.309 20.3642H115.782V31.3608H116.309Z" fill="#4B1212"/>
<path d="M109.691 43.4228C105.226 43.4228 102.107 40.2792 102.107 35.7781V15.2956C102.107 10.7945 105.226 7.65088 109.691 7.65088H116.221C127.542 7.65088 135.452 14.9996 135.452 25.496C135.452 36.0496 127.542 43.4208 116.221 43.4208L109.691 43.4228ZM116.084 31.0361C119.774 31.0361 122.157 28.8622 122.157 25.4981C122.165 22.1809 119.782 20.0437 116.084 20.0437H115.558V31.0402L116.084 31.0361Z" fill="#4B1212"/>
<path d="M109.474 43.0962C105.009 43.0962 101.891 39.9526 101.891 35.4515V14.971C101.891 10.4699 105.009 7.32629 109.474 7.32629H116.004C127.328 7.32629 135.236 14.675 135.236 25.1714C135.236 35.725 127.328 43.0962 116.004 43.0962H109.474ZM115.88 30.7095C119.57 30.7095 121.953 28.5355 121.953 25.1714C121.953 21.8564 119.57 19.713 115.88 19.713H115.349V30.7095H115.88Z" fill="#4B1212"/>
<path d="M109.258 42.7716C104.793 42.7716 101.675 39.628 101.675 35.1269V14.6464C101.675 10.1453 104.793 7.00171 109.258 7.00171H115.788C127.112 7.00171 135.019 14.3504 135.019 24.8469C135.019 35.4004 127.112 42.7716 115.788 42.7716H109.258ZM115.658 30.3849C119.347 30.3849 121.731 28.2109 121.731 24.8469C121.731 21.5318 119.347 19.3884 115.658 19.3884H115.131V30.3849H115.658Z" fill="#4B1212"/>
<path d="M109.258 42.9309C104.699 42.9309 101.516 39.7219 101.516 35.1269V14.6465C101.516 10.125 104.781 6.84253 109.258 6.84253H115.788C127.206 6.84253 135.175 14.2443 135.175 24.8469C135.175 35.4944 127.202 42.9309 115.788 42.9309H109.258ZM115.658 30.2278C118.514 30.2278 121.575 28.8152 121.575 24.8489C121.575 20.9419 118.514 19.5415 115.658 19.5415H115.29V30.2196L115.658 30.2278Z" fill="#3B7EC1"/>
<path d="M109.258 40.9487C105.813 40.9487 103.497 38.6094 103.497 35.1269V14.6464C103.497 11.166 105.811 8.82458 109.258 8.82458H115.788C126.038 8.82458 133.197 15.4139 133.197 24.8468C133.197 34.3287 126.038 40.9487 115.788 40.9487H109.258ZM115.657 32.2099C120.382 32.2099 123.553 29.252 123.553 24.8489C123.553 20.4948 120.38 17.5675 115.657 17.5675H113.309V32.2099H115.657Z" fill="white"/>
<path d="M109.258 39.9955C106.338 39.9955 104.45 38.0848 104.45 35.127V14.6465C104.45 11.7335 106.381 9.77795 109.258 9.77795H115.788C125.477 9.77795 132.244 15.9733 132.244 24.8469C132.244 33.7675 125.477 39.9955 115.788 39.9955H109.258ZM115.658 33.1591C120.867 33.1591 124.506 29.7399 124.506 24.8449C124.506 19.9988 120.867 16.6102 115.658 16.6102H112.358V33.1571L115.658 33.1591Z" fill="#010101"/>
<path d="M109.258 39.4197C106.648 39.4197 105.028 37.7744 105.028 35.133V14.6464C105.028 12.0396 106.689 10.3596 109.258 10.3596H115.788C125.137 10.3596 131.667 16.3203 131.667 24.8529C131.667 33.4264 125.137 39.4238 115.788 39.4238L109.258 39.4197ZM111.778 33.7959L115.656 33.7388C121.206 33.7388 125.082 30.0828 125.082 24.8468C125.082 19.6598 121.204 16.0365 115.656 16.0365H111.778V33.7959Z" fill="#FFC60A"/>
<path d="M96.4753 44.5393C92.7082 45.166 90.339 43.3472 88.5167 41.4773L82.2559 34.9594L83.0844 39.9402C83.7149 43.7248 81.36 47.0501 77.6113 47.6748C73.8625 48.2994 70.5566 45.9172 69.9281 42.1306L66.2692 20.1579C65.5876 16.061 68.0527 12.4744 72.0035 11.815C74.8829 11.3353 77.4909 12.3315 79.9744 14.8607L86.0964 21.1887L85.3046 16.4325C84.6741 12.6479 87.027 9.32259 90.7777 8.69795C94.5285 8.07331 97.8303 10.4555 98.4609 14.2422L102.124 36.2495C102.816 40.4016 100.442 43.8963 96.4835 44.5556" fill="#4B1212"/>
<path d="M96.2058 44.2638C92.4387 44.8905 90.0694 43.0717 88.2471 41.2018L81.9863 34.6839L82.8148 39.6647C83.4454 43.4493 81.0905 46.7746 77.3417 47.3992C73.593 48.0239 70.2891 45.6417 69.6586 41.855L66.0017 19.8742C65.3201 15.7773 67.7832 12.1907 71.736 11.5313C74.6154 11.0516 77.2234 12.0498 79.7069 14.577L85.8289 20.905L85.0371 16.1488C84.4065 12.3642 86.7595 9.0389 90.5102 8.41426C94.261 7.78962 97.5628 10.1718 98.1934 13.9585L101.846 35.9658C102.538 40.1179 100.167 43.6126 96.2058 44.2719" fill="#4B1212"/>
<path d="M95.9406 43.978C92.1735 44.6047 89.8043 42.7859 87.982 40.916L81.7212 34.3981L82.5497 39.3789C83.1803 43.1635 80.8253 46.4888 77.0766 47.1135C73.3279 47.7381 70.024 45.3559 69.3934 41.5774L65.7345 19.5884C65.0529 15.4915 67.5181 11.9049 71.4688 11.2456C74.3482 10.7659 76.9542 11.7641 79.4397 14.2912L85.5515 20.6193L84.7598 15.863C84.1292 12.0784 86.4821 8.75314 90.2329 8.12849C93.9836 7.50385 97.2875 9.88606 97.916 13.6727L101.579 35.6801C102.271 39.8321 99.8996 43.3268 95.9386 43.9862" fill="#4B1212"/>
<path d="M95.6773 43.6943C91.9102 44.321 89.5409 42.5022 87.7186 40.6323L81.4537 34.1287L82.2823 39.1095C82.9128 42.8941 80.5579 46.2194 76.8092 46.8441C73.0604 47.4687 69.7566 45.0865 69.126 41.2999L65.4752 19.3047C64.7936 15.2078 67.2588 11.6212 71.2095 10.9619C74.0889 10.4822 76.6949 11.4783 79.1804 14.0075L85.3025 20.3356L84.5107 15.5793C83.8801 11.7947 86.233 8.46944 89.9838 7.8448C93.7345 7.22016 97.0384 9.60237 97.6669 13.389L101.33 35.3964C102.022 39.5484 99.6484 43.0431 95.6895 43.7025" fill="#4B1212"/>
<path d="M95.406 43.4085C91.6389 44.0352 89.2697 42.2164 87.4473 40.3465L81.1886 33.8347L82.0171 38.8155C82.6477 42.6001 80.2927 45.9254 76.544 46.5501C72.7952 47.1747 69.4894 44.7925 68.8608 41.0059L65.1998 19.023C64.5183 14.9261 66.9834 11.3395 70.9342 10.6801C73.8135 10.2004 76.4215 11.1966 78.905 13.7258L85.0271 20.0539L84.2353 15.2976C83.6047 11.513 85.9576 8.18771 89.7084 7.56306C93.4592 6.93842 96.761 9.32063 97.3916 13.1073L101.044 35.1024C101.736 39.2544 99.3649 42.7492 95.4039 43.4085" fill="#4B1212"/>
<path d="M95.1385 43.1248C91.3714 43.7514 89.0021 41.9326 87.1798 40.0628L80.919 33.5449L81.7475 38.5257C82.3781 42.3103 80.0232 45.6356 76.2744 46.2602C72.5257 46.8849 69.2218 44.5026 68.5913 40.716L64.9323 18.7331C64.2507 14.6362 66.7138 11.0496 70.6666 10.3923C73.546 9.91262 76.154 10.9088 78.6375 13.438L84.7596 19.766L83.9678 15.0098C83.3372 11.2252 85.6922 7.89988 89.4409 7.27524C93.1896 6.6506 96.4935 9.02057 97.1057 12.8113L100.779 34.8187C101.471 38.9707 99.0994 42.4654 95.1385 43.1248Z" fill="#4B1212"/>
<path d="M94.8609 42.839C91.0938 43.4657 88.7246 41.6468 86.9023 39.777L80.6414 33.2591L81.47 38.2399C82.1005 42.0245 79.7456 45.3498 75.9969 45.9744C72.2481 46.5991 68.9443 44.2209 68.3321 40.4363L64.6588 18.4494C63.9772 14.3525 66.4424 10.7659 70.3931 10.1065C73.2725 9.62683 75.8785 10.625 78.364 13.1522L84.4759 19.4802L83.6841 14.724C83.0535 10.9394 85.4064 7.6141 89.1572 6.98946C92.908 6.36481 96.2118 8.74703 96.8404 12.5337L100.512 34.537C101.203 38.689 98.83 42.1837 94.8711 42.8431" fill="#4B1212"/>
<path d="M94.6038 42.5532C90.8367 43.1799 88.4674 41.3611 86.6451 39.4913L80.3843 32.9733L81.2128 37.9541C81.8434 41.7387 79.4884 45.064 75.7397 45.6887C71.991 46.3133 68.6871 43.9311 68.0565 40.1445L64.3976 18.1636C63.716 14.0667 66.1812 10.4801 70.1319 9.82079C73.0113 9.34108 75.6173 10.3372 78.1028 12.8664L84.2249 19.1945L83.4331 14.4321C82.8025 10.6475 85.1574 7.32223 88.9062 6.69759C92.6549 6.07294 95.9608 8.45516 96.5893 12.2418L100.252 34.2492C100.944 38.4012 98.5708 41.8959 94.6119 42.5553" fill="#4B1212"/>
<path d="M94.3366 42.2694C90.5695 42.8961 88.2003 41.0773 86.378 39.2074L80.1172 32.6997L80.9457 37.6805C81.5763 41.4651 79.2234 44.7904 75.4726 45.4151C71.7218 46.0397 68.418 43.6575 67.7895 39.8709L64.1305 17.8798C63.4489 13.7829 65.9141 10.1963 69.8648 9.53696C72.7442 9.05725 75.3522 10.0555 77.8357 12.5826L83.9577 18.9107L83.166 14.1544C82.5354 10.3698 84.8883 7.04452 88.6391 6.41988C92.3898 5.79523 95.6916 8.17745 96.3222 11.9641L99.9852 33.9715C100.677 38.1235 98.3057 41.6182 94.3448 42.2776" fill="#4B1212"/>
<path d="M94.0691 41.9837C90.302 42.6103 87.9328 40.7915 86.1105 38.9217L79.8497 32.4038L80.6782 37.3948C81.3088 41.1794 78.9538 44.5047 75.2051 45.1293C71.4564 45.754 68.1525 43.3718 67.5219 39.5851L63.863 17.5941C63.1814 13.4972 65.6445 9.91057 69.5973 9.25327C72.4767 8.77356 75.0847 9.76972 77.5682 12.2989L83.6902 18.627L82.8985 13.8707C82.2679 10.0861 84.6228 6.76083 88.3716 6.13618C92.1203 5.51154 95.4241 7.89375 96.0547 11.6804L99.7177 33.6878C100.41 37.8398 98.0382 41.3345 94.0773 41.9939" fill="#4B1212"/>
<path d="M93.802 41.6999C90.0349 42.3266 87.6657 40.5078 85.8433 38.638L79.5825 32.12L80.411 37.1008C81.0416 40.8854 78.6887 44.2107 74.9379 44.8354C71.1872 45.46 67.8853 43.0778 67.2548 39.2912L63.5958 17.3083C62.9143 13.2114 65.3794 9.62479 69.3302 8.96749C72.2096 8.48778 74.8155 9.48394 77.3011 12.0131L83.4129 18.3412L82.617 13.5768C81.9865 9.79218 84.3394 6.46688 88.0901 5.84224C91.8409 5.2176 95.1447 7.59981 95.7733 11.3864L99.4424 33.3938C100.134 37.5459 97.7629 41.0406 93.802 41.6999Z" fill="#4B1212"/>
<path d="M93.8284 41.855C89.9899 42.494 87.5819 40.6466 85.731 38.7522L79.8232 32.6038L80.5762 37.0804C81.2211 40.9589 78.8131 44.3577 74.9725 44.9966C71.132 45.6355 67.7526 43.1962 67.1077 39.3218L63.4345 17.3348C62.7386 13.1481 65.2589 9.48392 69.2994 8.81028C72.2339 8.32241 74.8848 9.33286 77.4111 11.9029L83.1699 17.8574L82.4618 13.6033C81.817 9.72479 84.225 6.32601 88.0655 5.68708C91.9061 5.04814 95.2875 7.48751 95.9324 11.3599L99.5954 33.3673C100.301 37.6112 97.8751 41.1814 93.8243 41.855" fill="#FFC60A"/>
<path d="M93.5021 39.8995C90.7329 40.3608 88.9575 39.2197 87.1474 37.3683L76.8175 26.6126L78.6133 37.407C79.0725 40.1649 77.3644 42.5899 74.6401 43.0431C71.9158 43.4963 69.5139 41.7571 69.0548 38.9993L65.3958 17.0103C64.8061 13.4727 67.0814 11.1905 69.6323 10.7659C71.9138 10.3862 73.9381 11.1884 76.0033 13.291L86.1761 23.8078L84.4231 13.2767C83.964 10.5168 85.6741 8.09381 88.3963 7.64064C91.1186 7.18747 93.5225 8.92462 93.9817 11.6845L97.6447 33.6919C98.1712 36.8518 96.4672 39.4075 93.5042 39.8995" fill="white"/>
<path d="M93.347 38.9605C90.9757 39.3545 89.4697 38.389 87.8371 36.7028L75.389 23.7364L77.6909 37.5622C78.0664 39.822 76.7236 41.7326 74.4993 42.1021C72.2749 42.4716 70.3853 41.1019 70.0098 38.836L66.3345 16.8531C65.8264 13.7912 67.763 12.0417 69.7873 11.7049C71.7362 11.3804 73.4953 12.0969 75.3237 13.9504L87.6147 26.6555L85.37 13.1114C84.9945 10.8517 86.3372 8.94099 88.5616 8.57152C90.7859 8.20204 92.6756 9.57176 93.0511 11.8376L96.6978 33.8491C97.1386 36.5028 95.7897 38.5441 93.3388 38.9524" fill="#010101"/>
<path d="M93.2508 38.391C91.1183 38.7462 89.7979 37.8929 88.2409 36.2987L74.4969 21.987L77.107 37.6561C77.4274 39.5852 76.2907 41.2162 74.3908 41.5346C72.491 41.8531 70.887 40.6793 70.5646 38.7483L66.9036 16.7592C66.4567 14.079 68.079 12.5766 69.8809 12.2684C71.6502 11.9744 73.2011 12.6174 74.9112 14.3566L88.4878 28.3947L85.9288 13.0196C85.6084 11.0905 86.7451 9.45951 88.645 9.14107C90.5448 8.82262 92.1508 9.99842 92.4712 11.9275L96.1343 33.9348C96.524 36.2783 95.3914 38.0175 93.2508 38.3829" fill="#3B7EC1"/>
<path d="M16.3807 47.2952C12.4881 47.3063 8.6801 46.1594 5.4406 44.0005C3.48359 42.7594 2.31836 40.712 2.31836 38.5155C2.31836 35.0249 5.07736 32.1875 8.46489 32.1875C8.83258 32.1886 9.19939 32.2235 9.56073 32.2916C4.89778 29.842 2.54284 26.3881 2.54284 21.9768C2.54284 14.967 8.07512 10.2556 16.3093 10.2556C19.6605 10.2529 22.9739 10.9641 26.029 12.3418C28.3697 13.3809 29.8532 15.5732 29.8532 18.0412C29.8532 21.5114 27.0922 24.3386 23.6986 24.3407H23.6863C29.3247 27.3843 30.6695 31.7221 30.6695 35.1413C30.6695 42.3001 24.7964 47.2993 16.3848 47.2993L16.3807 47.2952ZM13.4686 33.9246C14.0048 34.1305 14.5543 34.2996 15.1134 34.4309C14.5461 34.2703 13.9978 34.1015 13.4686 33.9246Z" fill="#4B1212"/>
<path d="M16.1644 46.9685C12.2718 46.9795 8.46379 45.8327 5.22429 43.6738C3.26728 42.4327 2.10205 40.3853 2.10205 38.1888C2.10205 34.6982 4.86105 31.8608 8.24858 31.8608C8.6141 31.8609 8.97885 31.8944 9.3383 31.9608C4.67535 29.5112 2.3204 26.0573 2.3204 21.646C2.3204 14.6362 7.85269 9.92481 16.0868 9.92481C19.4381 9.92208 22.7515 10.6333 25.8066 12.011C28.1472 13.0501 29.6328 15.2424 29.6328 17.7104C29.6328 21.1806 26.8718 24.0078 23.4782 24.0099H23.4659C29.1043 27.0535 30.4491 31.3913 30.4491 34.8125C30.4491 41.9714 24.576 46.9705 16.1644 46.9705V46.9685ZM13.2523 33.6061C13.7885 33.812 14.338 33.9811 14.8971 34.1123C14.3298 33.9517 13.7815 33.783 13.2523 33.6061Z" fill="#4B1212"/>
<path d="M15.9481 46.6439C12.0549 46.6554 8.24611 45.5085 5.00603 43.3493C3.04901 42.1081 1.88379 40.0607 1.88379 37.8642C1.88379 34.3736 4.64279 31.5362 8.03031 31.5362C8.39584 31.5363 8.76059 31.5698 9.12004 31.6362C4.45708 29.1866 2.10214 25.7327 2.10214 21.3214C2.10214 14.3116 7.63238 9.60023 15.8665 9.60023C19.2178 9.59743 22.5312 10.3086 25.5863 11.6864C27.9269 12.7255 29.4125 14.9178 29.4125 17.3858C29.4125 20.856 26.6515 23.6832 23.2579 23.6853H23.2456C28.884 26.7289 30.2288 31.0667 30.2288 34.4859C30.2288 41.6447 24.3557 46.6439 15.9441 46.6439H15.9481ZM13.03 33.2794C13.5661 33.4853 14.1157 33.6544 14.6748 33.7857C14.1075 33.6251 13.5592 33.4564 13.03 33.2794Z" fill="#4B1212"/>
<path d="M15.7318 46.3193C11.8391 46.3305 8.03112 45.1837 4.79167 43.0247C2.83466 41.7815 1.66943 39.7361 1.66943 37.5396C1.66943 34.049 4.42639 31.2116 7.81596 31.2116C8.18149 31.2117 8.54624 31.2452 8.90568 31.3116C4.24273 28.862 1.88778 25.4081 1.88778 20.9969C1.88778 13.987 7.42007 9.27564 15.6522 9.27564C19.0041 9.27262 22.3182 9.98381 25.374 11.3619C27.7146 12.4009 29.1982 14.5933 29.1982 17.0612C29.1982 20.5314 26.4372 23.3587 23.0435 23.3607H23.0292C28.6676 26.4043 30.0124 30.7421 30.0124 34.1613C30.0124 41.3202 24.1394 46.3193 15.7277 46.3193H15.7318ZM12.8258 32.9549C13.362 33.1606 13.9115 33.3298 14.4706 33.4611C13.9033 33.3005 13.355 33.1318 12.8258 32.9549Z" fill="#4B1212"/>
<path d="M15.5155 45.9949C11.6224 46.0072 7.81362 44.8611 4.57341 42.7023C2.6164 41.4612 1.45117 39.4137 1.45117 37.2173C1.45117 33.7266 4.20813 30.8892 7.5977 30.8892C7.96323 30.8893 8.32798 30.9228 8.68742 30.9892C4.02447 28.5396 1.66953 25.0857 1.66953 20.6745C1.66953 13.6646 7.20181 8.95326 15.4339 8.95326C18.7858 8.95024 22.1 9.66142 25.1557 11.0395C27.4964 12.0785 28.982 14.2709 28.982 16.7388C28.982 20.2091 26.2189 23.0363 22.8252 23.0383H22.813C28.4514 26.0819 29.7962 30.4197 29.7962 33.8389C29.7962 40.9978 23.9231 45.9969 15.5115 45.9969L15.5155 45.9949ZM12.6014 32.6304C13.1376 32.8363 13.6871 33.0054 14.2462 33.1367C13.6789 32.9761 13.1307 32.8074 12.6014 32.6304Z" fill="#4B1212"/>
<path d="M15.2967 45.6703C11.4041 45.6813 7.59612 44.5345 4.35661 42.3756C2.3996 41.1345 1.23438 39.087 1.23438 36.8906C1.23438 33.4 3.99133 30.5625 7.3809 30.5625C7.74643 30.5627 8.11118 30.5961 8.47062 30.6625C3.80767 28.213 1.45273 24.7591 1.45273 20.3478C1.45273 13.3379 6.98297 8.6266 15.2171 8.6266C18.5683 8.6238 21.8818 9.33498 24.9369 10.7128C27.2775 11.7518 28.7631 13.9442 28.7631 16.4122C28.7631 19.8824 26.0021 22.7096 22.6084 22.7116H22.5962C28.2346 25.7593 29.5794 30.091 29.5794 33.5163C29.5794 40.6752 23.7063 45.6744 15.2947 45.6744L15.2967 45.6703ZM12.3826 32.3099C12.9187 32.5158 13.4683 32.685 14.0274 32.8161C13.4601 32.6556 12.9118 32.4868 12.3826 32.3099Z" fill="#4B1212"/>
<path d="M15.0809 45.3437C11.1883 45.355 7.3802 44.2082 4.1408 42.0491C2.18378 40.8079 1.01855 38.7605 1.01855 36.5641C1.01855 33.0734 3.77551 30.236 7.16508 30.236C7.53061 30.2362 7.89536 30.2696 8.25481 30.336C3.59185 27.8864 1.23691 24.4325 1.23691 20.0213C1.23691 13.0114 6.76919 8.30006 15.0013 8.30006C18.3532 8.29691 21.6674 9.0081 24.7231 10.3863C27.0638 11.4253 28.5473 13.6177 28.5473 16.0856C28.5473 19.5559 25.7863 22.3831 22.3926 22.3851H22.3804C28.0188 25.4287 29.3554 29.7665 29.3554 33.1857C29.3554 40.3446 23.4824 45.3437 15.0707 45.3437H15.0809ZM12.1586 31.9793C12.6948 32.1851 13.2443 32.3542 13.8034 32.4855C13.2361 32.3249 12.6878 32.1562 12.1586 31.9793Z" fill="#4B1212"/>
<path d="M14.866 45.019C10.9734 45.0302 7.1654 43.8834 3.92595 41.7244C1.96894 40.4832 0.803711 38.4358 0.803711 36.2394C0.803711 32.7487 3.56067 29.9113 6.95024 29.9113C7.31576 29.9114 7.68052 29.9449 8.03996 30.0113C3.37701 27.5617 1.02207 24.1078 1.02207 19.6966C1.02207 12.6867 6.55434 7.97535 14.7864 7.97535C18.1384 7.97233 21.4525 8.68352 24.5082 10.0616C26.8469 11.1006 28.3345 13.293 28.3345 15.7568C28.3345 19.2271 25.5735 22.0543 22.1798 22.0563H22.1676C27.8019 25.104 29.1508 29.4336 29.1508 32.861C29.1508 40.0199 23.2777 45.019 14.866 45.019ZM11.954 31.6546C12.4901 31.8604 13.0397 32.0296 13.5988 32.1608C13.0315 32.0002 12.4832 31.8315 11.954 31.6546Z" fill="#4B1212"/>
<path d="M14.6483 44.6946C10.7557 44.7056 6.94768 43.5588 3.70818 41.3999C1.75117 40.1567 0.585938 38.1113 0.585938 35.9149C0.585938 32.4242 3.34494 29.5868 6.73246 29.5868C7.09799 29.587 7.46274 29.6205 7.82219 29.6868C3.15923 27.2373 0.804289 23.7834 0.804289 19.3721C0.804289 12.3622 6.33657 7.65089 14.5707 7.65089C17.922 7.64816 21.2354 8.35933 24.2905 9.73711C26.6311 10.7761 28.1147 12.9685 28.1147 15.4364C28.1147 18.9067 25.3537 21.7339 21.96 21.7359H21.9478C27.5862 24.7795 28.931 29.1173 28.931 32.5386C28.931 39.6974 23.0579 44.6966 14.6462 44.6966L14.6483 44.6946ZM11.7342 31.3321C12.2703 31.538 12.8199 31.7071 13.379 31.8384C12.8116 31.6778 12.2634 31.5091 11.7342 31.3321Z" fill="#4B1212"/>
<path d="M14.4315 44.37C10.5382 44.3792 6.73019 43.2303 3.49138 41.0692C1.53437 39.8281 0.369141 37.7807 0.369141 35.5842C0.369141 32.0936 3.12814 29.2561 6.51567 29.2561C6.88119 29.2563 7.24594 29.2898 7.60539 29.3562C2.94244 26.9066 0.587492 23.4527 0.587492 19.0414C0.587492 12.0315 6.11977 7.3202 14.3539 7.3202C17.7052 7.31747 21.0186 8.02865 24.0737 9.40642C26.4143 10.4454 27.8999 12.6378 27.8999 15.1058C27.8999 18.576 25.1389 21.4032 21.7453 21.4052H21.733C27.3714 24.4488 28.7162 28.7866 28.7162 32.2079C28.7162 39.3667 22.8431 44.3659 14.4315 44.3659V44.37ZM11.5194 31.0055C12.0556 31.2114 12.6051 31.3806 13.1642 31.5118C12.5969 31.3512 12.0486 31.1825 11.5194 31.0055Z" fill="#4B1212"/>
<path d="M14.2153 44.0454C10.322 44.0568 6.5132 42.91 3.27312 40.7507C1.31611 39.5096 0.150879 37.4622 0.150879 35.2657C0.150879 31.7751 2.90784 28.9377 6.29741 28.9377C6.66293 28.9378 7.02769 28.9713 7.38713 29.0377C2.72418 26.5881 0.369233 23.1342 0.369233 18.7229C0.369233 11.7131 5.89948 7.00172 14.1336 7.00172C17.4849 6.99892 20.7983 7.71011 23.8534 9.08794C26.194 10.127 27.6797 12.3193 27.6797 14.7873C27.6797 18.2575 24.9186 21.0847 21.525 21.0868H21.5127C27.1532 24.1263 28.498 28.4661 28.498 31.8833C28.498 39.0421 22.6249 44.0413 14.2132 44.0413L14.2153 44.0454ZM11.3032 30.6789C11.8393 30.8848 12.3889 31.054 12.948 31.1851C12.3807 31.0246 11.8324 30.8558 11.3032 30.6789Z" fill="#4B1212"/>
<path d="M14.2154 44.2026C10.2946 44.2123 6.45925 43.0571 3.1957 40.8835C1.1938 39.6117 0 37.5153 0 35.2658C0 31.6894 2.82838 28.7785 6.3057 28.7785C6.40774 28.7785 6.50977 28.7785 6.60976 28.7785C2.36311 26.3289 0.218354 22.9607 0.218354 18.7148C0.218354 11.609 5.8139 6.83437 14.1419 6.83437C17.5191 6.8304 20.8584 7.54647 23.9372 8.93488C26.3329 9.99636 27.8553 12.2459 27.8553 14.7771C27.8553 18.1473 25.3187 20.9215 22.0965 21.2093C27.39 24.2713 28.6715 28.5111 28.6715 31.8772C28.6715 39.0218 22.5985 44.1945 14.2317 44.1945" fill="#F26622"/>
<path d="M14.2153 42.2204C10.6715 42.2153 7.20757 41.1675 4.25476 39.2075C3.5762 38.7934 3.01246 38.2155 2.61527 37.5268C2.21807 36.838 2.00013 36.0606 1.98145 35.2657C1.98145 32.8161 3.96091 30.7605 6.30565 30.7605C6.99191 30.765 7.66788 30.9278 8.28102 31.2361C8.3198 31.2545 8.35857 31.277 8.3953 31.2994C10.2686 32.4201 12.7379 33.2019 14.399 33.2019C14.65 33.2019 16.8478 33.157 16.8478 31.626C16.8478 30.8891 16.3601 30.3563 13.6929 29.4969C6.08933 27.4189 2.19776 23.7813 2.19776 18.7209C2.19776 12.7092 6.89132 8.82253 14.1398 8.82253C17.2269 8.81818 20.2794 9.4716 23.0943 10.7393C24.7922 11.4926 25.8635 13.046 25.8635 14.7832C25.8635 16.9347 24.2065 19.2577 21.5312 19.2577C21.0306 19.2555 20.5337 19.1721 20.0598 19.0107L19.9721 18.9801C18.1008 18.2309 16.2417 17.8002 14.8704 17.8002C14.6459 17.8002 12.6787 17.8308 12.6787 18.8597C12.6787 19.6129 13.3725 20.0252 16.0601 20.8663C23.0902 22.9076 26.6716 26.6126 26.6716 31.8894C26.6716 37.9745 21.5495 42.2245 14.2235 42.2245" fill="white"/>
<path d="M14.2153 41.2733C10.857 41.2684 7.57443 40.2745 4.77716 38.4155C3.64255 37.7092 2.92627 36.4967 2.92627 35.2637C2.92627 33.3387 4.47106 31.7118 6.29747 31.7118C6.83857 31.7165 7.37134 31.8457 7.85451 32.0895C9.59521 33.1285 12.2603 34.1532 14.3847 34.1532C16.0784 34.1532 17.7865 33.3714 17.7865 31.6261C17.7865 30.0992 16.5009 29.4051 13.9725 28.5907C6.79131 26.6269 3.13646 23.3057 3.13646 18.7209C3.13646 13.2869 7.45045 9.77588 14.1276 9.77588C17.0778 9.77387 19.9946 10.4001 22.6841 11.6131C24.0677 12.2255 24.9003 13.4176 24.9003 14.7934C24.9003 16.4959 23.5412 18.3167 21.5189 18.3167C21.1207 18.3119 20.7259 18.2429 20.3496 18.1126C18.3089 17.2961 16.3703 16.8531 14.8663 16.8531C14.3418 16.8531 11.7236 16.9511 11.7236 18.8638C11.7236 20.3478 13.0195 20.9174 15.7723 21.7788C22.3678 23.6874 25.7186 27.0862 25.7186 31.8894C25.7186 37.4152 20.9863 41.2794 14.2112 41.2794" fill="#010101"/>
<path d="M14.2154 40.6916C10.9724 40.6891 7.802 39.7313 5.09972 37.9378C4.11611 37.3254 3.50391 36.3048 3.50391 35.2658C3.50391 33.8368 4.62628 32.2916 6.29759 32.2916C6.75046 32.2967 7.19603 32.4064 7.59955 32.612C9.36678 33.6694 12.1503 34.735 14.393 34.735C16.3745 34.735 18.3723 33.7756 18.3723 31.6302C18.3723 29.5705 16.4643 28.7887 14.1583 28.0436C7.13835 26.1227 3.7243 23.075 3.7243 18.725C3.7243 13.5646 7.71382 10.3556 14.1318 10.3556C16.997 10.3505 19.8304 10.956 22.4434 12.1316C23.6209 12.6541 24.325 13.6462 24.325 14.7853C24.325 16.2142 23.1985 17.7309 21.5211 17.7309C21.1849 17.7289 20.8514 17.6724 20.5334 17.5635C19.3273 17.0817 16.9928 16.2754 14.8664 16.2754C13.1502 16.2754 11.1462 16.9531 11.1462 18.8638C11.1462 20.7745 12.8278 21.4624 15.599 22.334C21.9251 24.1712 25.1392 27.3822 25.1392 31.8915C25.1392 37.0764 20.6497 40.6977 14.2113 40.6977" fill="#0FAB4B"/>
<path d="M167.801 46.7848C166.491 46.7879 165.209 46.3993 164.122 45.669C163.034 44.9386 162.189 43.8999 161.695 42.6859L160.548 40.0322H151.875L150.716 42.7022C150.13 44.1116 149.075 45.2746 147.729 45.9934C146.382 46.7123 144.829 46.9426 143.332 46.6453C141.836 46.348 140.488 45.5414 139.519 44.3626C138.549 43.1838 138.018 41.7055 138.015 40.1791C138.005 39.2356 138.206 38.3017 138.603 37.4458L148.631 15.1649C149.975 12.1029 152.814 10.2515 156.212 10.2515C157.824 10.2338 159.406 10.6957 160.755 11.5785C162.105 12.4612 163.162 13.7251 163.793 15.2098C163.793 15.2098 173.874 37.5642 173.884 37.5908C174.23 38.4129 174.409 39.2955 174.411 40.1873C174.408 41.9387 173.71 43.6174 172.471 44.8545C171.231 46.0916 169.552 46.7859 167.801 46.7848Z" fill="#4B1212"/>
<path d="M167.585 46.452C166.275 46.4551 164.994 46.0665 163.906 45.3362C162.818 44.6058 161.973 43.5671 161.479 42.3531L160.332 39.6994H151.659L150.5 42.3919C149.915 43.8013 148.859 44.9642 147.513 45.6831C146.167 46.4019 144.613 46.6322 143.117 46.3349C141.62 46.0376 140.272 45.231 139.303 44.0522C138.334 42.8734 137.802 41.3952 137.799 39.8688C137.789 38.9253 137.99 37.9915 138.387 37.1355L148.417 14.8464C149.762 11.7844 152.6 9.93297 155.998 9.93297C157.61 9.91561 159.192 10.3776 160.541 11.2603C161.891 12.1431 162.948 13.4068 163.579 14.8913C163.579 14.8913 173.66 37.2457 173.67 37.2723C174.016 38.0944 174.195 38.977 174.197 39.8688C174.192 41.619 173.493 43.2958 172.254 44.5315C171.015 45.7671 169.337 46.4607 167.587 46.4602" fill="#4B1212"/>
<path d="M167.368 46.1276C166.058 46.1303 164.777 45.7417 163.689 45.0114C162.601 44.2811 161.756 43.2425 161.262 42.0286L160.116 39.3749H151.443L150.284 42.0674C149.698 43.4768 148.642 44.6398 147.296 45.3586C145.95 46.0775 144.396 46.3078 142.9 46.0105C141.403 45.7132 140.056 44.9066 139.086 43.7278C138.117 42.549 137.585 41.0707 137.582 39.5443C137.572 38.6008 137.773 37.6669 138.17 36.811L148.2 14.522C149.545 11.46 152.383 9.60852 155.781 9.60852C157.394 9.59089 158.975 10.0528 160.325 10.9355C161.675 11.8183 162.732 13.0822 163.362 14.5669C163.362 14.5669 173.443 36.9213 173.453 36.9478C173.799 37.7699 173.978 38.6525 173.98 39.5443C173.976 41.2947 173.277 42.9718 172.038 44.2076C170.799 45.4434 169.12 46.1368 167.37 46.1357" fill="#4B1212"/>
<path d="M167.152 45.803C165.842 45.8058 164.561 45.4171 163.473 44.6868C162.386 43.9565 161.541 42.9179 161.047 41.704L159.9 39.0503H151.227L150.068 41.7428C149.482 43.1522 148.426 44.3152 147.08 45.034C145.734 45.7529 144.181 45.9832 142.684 45.6859C141.187 45.3886 139.84 44.582 138.87 43.4032C137.901 42.2244 137.37 40.7461 137.367 39.2198C137.356 38.2762 137.557 37.3423 137.954 36.4865L147.984 14.1974C149.329 11.1354 152.168 9.28393 155.565 9.28393C157.178 9.26631 158.759 9.72817 160.109 10.6109C161.459 11.4937 162.516 12.7576 163.146 14.2423C163.146 14.2423 173.227 36.5967 173.238 36.6232C173.583 37.4453 173.762 38.3279 173.764 39.2198C173.76 40.9701 173.061 42.6473 171.822 43.883C170.583 45.1188 168.904 45.8123 167.154 45.8112" fill="#4B1212"/>
<path d="M166.936 45.4763C165.625 45.4793 164.344 45.0908 163.256 44.3604C162.168 43.6301 161.323 42.5913 160.83 41.3773L159.683 38.7236H151.01L149.851 41.4161C149.265 42.8255 148.209 43.9885 146.863 44.7073C145.517 45.4262 143.964 45.6565 142.467 45.3592C140.97 45.0619 139.623 44.2553 138.654 43.0765C137.684 41.8977 137.153 40.4194 137.15 38.8931C137.14 37.9495 137.34 37.0156 137.738 36.1597L147.767 13.8707C149.112 10.8087 151.951 8.95722 155.349 8.95722C156.961 8.94061 158.542 9.40337 159.892 10.2868C161.241 11.1703 162.298 12.4347 162.928 13.9196C162.928 13.9196 173.009 36.2741 173.019 36.3006C173.364 37.1227 173.543 38.0053 173.545 38.8971C173.54 40.6473 172.842 42.3241 171.603 43.5598C170.364 44.7955 168.685 45.4891 166.936 45.4885" fill="#4B1212"/>
<path d="M166.72 45.1518C165.409 45.1548 164.128 44.7662 163.04 44.0359C161.952 43.3056 161.108 42.2668 160.614 41.0528L159.467 38.3991H150.794L149.635 41.0916C149.049 42.501 147.994 43.664 146.647 44.3828C145.301 45.1017 143.748 45.332 142.251 45.0347C140.755 44.7374 139.407 43.9308 138.438 42.752C137.468 41.5732 136.937 40.0949 136.934 38.5685C136.919 37.6237 137.117 36.6877 137.511 35.8291L147.541 13.54C148.886 10.4781 151.725 8.62658 155.122 8.62658C156.735 8.60896 158.316 9.07082 159.666 9.95359C161.016 10.8364 162.073 12.1002 162.704 13.5849C162.704 13.5849 172.785 35.9393 172.795 35.9659C173.14 36.788 173.319 37.6706 173.321 38.5624C173.316 40.311 172.619 41.9864 171.381 43.2215C170.144 44.4566 168.468 45.1507 166.72 45.1518Z" fill="#4B1212"/>
<path d="M166.503 44.8273C165.193 44.8303 163.912 44.4417 162.824 43.7114C161.736 42.9811 160.891 41.9423 160.397 40.7283L159.251 38.0746H150.572L149.412 40.7671C148.826 42.1757 147.77 43.3377 146.424 44.0559C145.078 44.7741 143.525 45.0041 142.028 44.7069C140.532 44.4097 139.185 43.6037 138.215 42.4256C137.246 41.2475 136.713 39.77 136.709 38.244C136.701 37.297 136.905 36.3601 137.307 35.5025L147.337 13.2135C148.682 10.1515 151.52 8.30003 154.918 8.30003C156.531 8.28268 158.112 8.74465 159.462 9.62738C160.811 10.5101 161.869 11.7739 162.499 13.2584C162.499 13.2584 172.58 35.6128 172.591 35.6393C172.936 36.4614 173.115 37.344 173.117 38.2359C173.113 39.9862 172.414 41.6633 171.175 42.8991C169.936 44.1349 168.257 44.8283 166.507 44.8273" fill="#4B1212"/>
<path d="M166.285 44.5026C164.975 44.5057 163.694 44.1171 162.606 43.3868C161.518 42.6564 160.673 41.6176 160.179 40.4037L159.032 37.75H150.368L149.209 40.4424C148.627 41.8607 147.571 43.0327 146.221 43.7577C144.871 44.4827 143.311 44.7155 141.808 44.4164C140.305 44.1172 138.953 43.3047 137.983 42.118C137.013 40.9312 136.485 39.4441 136.491 37.9112C136.481 36.9677 136.682 36.0338 137.079 35.1779L147.117 12.899C148.462 9.83706 151.3 7.98559 154.698 7.98559C156.311 7.96797 157.892 8.42983 159.242 9.3126C160.591 10.1954 161.649 11.4593 162.279 12.9439C162.279 12.9439 172.36 35.2983 172.37 35.3249C172.716 36.147 172.895 37.0296 172.897 37.9214C172.889 39.6702 172.189 41.3447 170.95 42.5782C169.711 43.8117 168.033 44.5037 166.285 44.5026Z" fill="#4B1212"/>
<path d="M166.071 44.1761C164.76 44.1805 163.477 43.7928 162.388 43.0628C161.299 42.3327 160.453 41.2937 159.959 40.0792L158.812 37.4254H150.139L148.98 40.1179C148.391 41.5229 147.334 42.6809 145.989 43.3958C144.644 44.1107 143.093 44.3385 141.6 44.0406C140.106 43.7427 138.761 42.9375 137.793 41.7613C136.825 40.5851 136.293 39.1103 136.287 37.5867C136.277 36.6432 136.478 35.7093 136.875 34.8534L146.899 12.5643C148.243 9.50235 151.082 7.65088 154.48 7.65088C156.092 7.63325 157.674 8.09512 159.023 8.97788C160.373 9.86065 161.43 11.1245 162.061 12.6092C162.061 12.6092 172.142 34.9636 172.152 34.9902C172.498 35.8123 172.676 36.6949 172.678 37.5867C172.674 39.3371 171.976 41.0142 170.736 42.25C169.497 43.4857 167.818 44.1792 166.069 44.1781" fill="#4B1212"/>
<path d="M165.852 43.8515C164.544 43.8529 163.264 43.4636 162.178 42.7334C161.092 42.0031 160.248 40.9653 159.755 39.7526L158.608 37.0989H149.935L148.776 39.7913C148.19 41.2007 147.134 42.3637 145.788 43.0826C144.442 43.8014 142.889 44.0317 141.392 43.7344C139.895 43.4371 138.548 42.6305 137.578 41.4517C136.609 40.2729 136.078 38.7947 136.075 37.2683C136.063 36.3261 136.261 35.393 136.654 34.537L146.684 12.2479C148.029 9.18595 150.868 7.33448 154.265 7.33448C155.877 7.31662 157.458 7.77769 158.808 8.65928C160.157 9.54088 161.215 10.8033 161.846 12.2867C161.846 12.2867 171.927 34.6411 171.938 34.6677C172.283 35.4898 172.462 36.3724 172.464 37.2642C172.459 39.0144 171.761 40.6912 170.522 41.9269C169.283 43.1625 167.604 43.8561 165.854 43.8556" fill="#4B1212"/>
<path d="M165.636 43.5187C164.328 43.5228 163.048 43.1365 161.96 42.4093C160.873 41.682 160.026 40.6469 159.53 39.4361L158.383 36.7824H149.71L148.551 39.4749C147.965 40.8843 146.91 42.0473 145.564 42.7661C144.217 43.4849 142.664 43.7153 141.167 43.418C139.671 43.1207 138.323 42.314 137.354 41.1352C136.384 39.9564 135.853 38.4782 135.85 36.9518C135.84 36.0083 136.041 35.0744 136.438 34.2185L146.468 11.9294C147.812 8.86746 150.651 7.01599 154.049 7.01599C155.661 6.99836 157.243 7.46023 158.592 8.34299C159.942 9.22576 160.999 10.4897 161.63 11.9743C161.63 11.9743 171.711 34.3287 171.721 34.3553C172.067 35.1774 172.246 36.06 172.248 36.9518C172.237 38.6983 171.535 40.3694 170.296 41.6C169.057 42.8305 167.382 43.5204 165.636 43.5187Z" fill="#4B1212"/>
<path d="M165.636 43.686C164.295 43.6888 162.984 43.2911 161.87 42.5437C160.757 41.7964 159.891 40.7334 159.385 39.4911L158.279 36.9273H149.817L148.711 39.4911C148.116 40.9398 147.038 42.1375 145.66 42.8798C144.282 43.6222 142.689 43.8633 141.153 43.562C139.616 43.2607 138.232 42.4356 137.236 41.2276C136.24 40.0196 135.694 38.5033 135.691 36.9375C135.677 35.9684 135.881 35.0086 136.287 34.1286L146.315 11.8436C147.684 8.72042 150.578 6.83629 154.041 6.83629C155.684 6.81873 157.295 7.28949 158.671 8.18891C160.046 9.08833 161.124 10.3759 161.767 11.8885L171.858 34.2715C172.211 35.1119 172.394 36.0138 172.397 36.9252C172.392 38.7175 171.676 40.4346 170.407 41.6997C169.138 42.9649 167.42 43.6749 165.628 43.6738" fill="#0FAB4B"/>
<path d="M165.636 41.7041C164.681 41.7059 163.749 41.4208 162.958 40.8857C162.168 40.3506 161.556 39.5903 161.203 38.7033L159.585 34.9453H148.51L146.878 38.7401C146.457 39.7631 145.696 40.6087 144.722 41.1329C143.748 41.6572 142.623 41.8277 141.538 41.6154C140.453 41.4031 139.475 40.8211 138.77 39.9686C138.066 39.1161 137.679 38.0457 137.674 36.9396C137.664 36.2669 137.803 35.6001 138.083 34.9881L148.123 12.6644C148.63 11.5169 149.461 10.5419 150.513 9.85823C151.565 9.17455 152.793 8.81169 154.047 8.81385C155.302 8.81602 156.529 9.18311 157.578 9.87041C158.628 10.5577 159.455 11.5355 159.959 12.6848L170.027 35.0126C170.291 35.6205 170.43 36.2751 170.435 36.9376C170.431 38.204 169.925 39.4169 169.028 40.3104C168.131 41.204 166.916 41.7052 165.65 41.7041H165.636ZM155.963 26.5616L154.041 22.1626L152.139 26.5616H155.963Z" fill="white"/>
<path d="M165.636 40.7528C164.872 40.7538 164.125 40.525 163.492 40.0963C162.859 39.6675 162.37 39.0585 162.087 38.3481L160.21 33.994H147.886L146.005 38.3644C145.671 39.1868 145.062 39.8676 144.282 40.2907C143.502 40.7138 142.599 40.8529 141.728 40.6842C140.857 40.5155 140.071 40.0495 139.505 39.3658C138.94 38.6821 138.629 37.8231 138.626 36.9355C138.616 36.4037 138.726 35.8764 138.946 35.3923L148.998 13.0542C149.911 10.9741 151.753 9.78811 154.049 9.78811C155.119 9.7752 156.169 10.0805 157.065 10.6652C157.961 11.25 158.664 12.0879 159.083 13.0726L169.158 35.4127C169.363 35.8978 169.47 36.4189 169.472 36.9457C169.469 37.9599 169.063 38.9313 168.344 39.6465C167.625 40.3618 166.652 40.7626 165.638 40.7609L165.636 40.7528ZM157.398 27.523L154.049 19.766L150.7 27.523H157.398Z" fill="#010101"/>
<path d="M165.636 40.173C164.987 40.1738 164.352 39.9796 163.815 39.6157C163.278 39.2517 162.862 38.7348 162.622 38.1317L160.581 33.3796L147.474 33.4143L145.47 38.1317C145.189 38.8324 144.674 39.4138 144.012 39.7762C143.351 40.1386 142.583 40.2594 141.842 40.118C141.101 39.9766 140.432 39.5817 139.95 39.0011C139.469 38.4205 139.203 37.6902 139.201 36.9355C139.192 36.4891 139.283 36.0464 139.466 35.6393L149.525 13.293C150.341 11.4273 151.992 10.3556 154.049 10.3556C155.006 10.3437 155.945 10.6166 156.747 11.1396C157.549 11.6626 158.177 12.4121 158.552 13.293L168.629 35.6413C168.802 36.0511 168.891 36.491 168.893 36.9355C168.891 37.3626 168.805 37.785 168.64 38.1789C168.475 38.5727 168.234 38.9301 167.93 39.2307C167.627 39.5314 167.268 39.7693 166.873 39.931C166.477 40.0927 166.054 40.1749 165.627 40.173H165.636ZM158.267 28.0905L154.041 18.3065L149.812 28.0905H158.267Z" fill="#F26622"/>
<path d="M223.401 48.9997C210.313 48.9997 200.444 39.3341 200.444 26.5167C200.444 13.7544 210.313 4.12964 223.401 4.12964C236.49 4.12964 246.382 13.7544 246.382 26.5167C246.392 29.6499 245.768 32.7527 244.545 35.6373C246.229 37.4316 247.079 39.3872 247.079 41.4734C247.087 42.4387 246.902 43.3958 246.535 44.2885C246.168 45.1813 245.626 45.9918 244.942 46.6726C244.258 47.3534 243.445 47.8907 242.55 48.2532C241.656 48.6156 240.698 48.7959 239.733 48.7833C237.776 48.7833 235.895 48.1464 234.142 46.8931L233.864 46.7175C230.59 48.2394 227.02 49.0187 223.41 48.9997H223.401ZM223.41 19.3027C219.559 19.3027 216.879 22.2708 216.879 26.5167C216.879 30.7626 219.628 33.8246 223.41 33.8246C227.258 33.8246 229.94 30.8198 229.94 26.5167C229.94 22.2708 227.25 19.3027 223.41 19.3027Z" fill="#4B1212"/>
<path d="M223.138 48.6057C210.049 48.6057 200.181 38.9401 200.181 26.1227C200.181 13.3604 210.051 3.7356 223.138 3.7356C236.225 3.7356 246.12 13.3604 246.12 26.1227C246.132 29.2559 245.507 32.3587 244.284 35.2432C245.967 37.0376 246.818 38.9931 246.818 41.0794C246.826 42.0447 246.641 43.0017 246.273 43.8945C245.906 44.7873 245.365 45.5978 244.681 46.2786C243.997 46.9594 243.183 47.4967 242.289 47.8591C241.395 48.2216 240.437 48.4018 239.472 48.3893C237.513 48.3893 235.633 47.7524 233.88 46.499L233.603 46.3235C230.329 47.8453 226.759 48.6246 223.149 48.6057H223.138ZM223.149 18.9087C219.3 18.9087 216.618 21.8767 216.618 26.1227C216.618 30.3686 219.369 33.4306 223.149 33.4306C226.997 33.4306 229.679 30.4258 229.679 26.1227C229.679 21.8767 226.989 18.9087 223.149 18.9087Z" fill="#4B1212"/>
<path d="M222.875 48.2137C209.788 48.2137 199.917 38.5481 199.917 25.7307C199.917 12.9684 209.788 3.34363 222.875 3.34363C235.962 3.34363 245.855 12.9684 245.855 25.7307C245.866 28.8639 245.241 31.9667 244.018 34.8513C245.702 36.6456 246.553 38.6012 246.553 40.6874C246.56 41.6526 246.374 42.6095 246.007 43.5022C245.64 44.3948 245.099 45.2052 244.414 45.886C243.73 46.5667 242.917 47.1041 242.023 47.4666C241.129 47.8291 240.171 48.0096 239.206 47.9973C237.247 47.9973 235.368 47.3625 233.615 46.1071L233.337 45.9315C230.06 47.4544 226.488 48.2337 222.875 48.2137ZM222.875 18.5167C219.026 18.5167 216.344 21.4848 216.344 25.7307C216.344 29.9766 219.095 33.0386 222.875 33.0386C226.723 33.0386 229.405 30.0338 229.405 25.7307C229.405 21.4848 226.717 18.5167 222.875 18.5167Z" fill="#4B1212"/>
<path d="M222.608 47.8177C209.519 47.8177 199.65 38.1521 199.65 25.3347C199.65 12.5724 209.519 2.94763 222.608 2.94763C235.696 2.94763 245.588 12.5724 245.588 25.3347C245.599 28.4679 244.974 31.5707 243.751 34.4553C245.435 36.2496 246.286 38.2052 246.286 40.2914C246.293 41.2572 246.108 42.2148 245.74 43.108C245.373 44.0012 244.831 44.8119 244.146 45.4928C243.461 46.1737 242.647 46.7109 241.752 47.073C240.857 47.435 239.898 47.6147 238.933 47.6013C236.974 47.6013 235.094 46.9644 233.342 45.7111L233.064 45.5355C229.789 47.0575 226.219 47.8368 222.608 47.8177ZM222.608 18.1207C218.759 18.1207 216.077 21.0888 216.077 25.3347C216.077 29.5806 218.826 32.6426 222.608 32.6426C226.456 32.6426 229.138 29.6378 229.138 25.3347C229.138 21.0888 226.45 18.1207 222.608 18.1207Z" fill="#4B1212"/>
<path d="M222.35 47.4238C209.261 47.4238 199.393 37.7582 199.393 24.9408C199.393 12.1785 209.261 2.55371 222.35 2.55371C235.439 2.55371 245.33 12.1805 245.33 24.9428C245.341 28.076 244.716 31.1788 243.494 34.0634C245.177 35.8577 246.028 37.8133 246.028 39.8995C246.036 40.8648 245.85 41.8219 245.483 42.7147C245.116 43.6074 244.575 44.418 243.891 45.0987C243.206 45.7795 242.393 46.3169 241.499 46.6793C240.605 47.0417 239.647 47.222 238.682 47.2095C236.725 47.2095 234.843 46.5746 233.09 45.3192L232.813 45.1436C229.539 46.6655 225.969 47.4449 222.358 47.4258L222.35 47.4238ZM222.358 17.7288C218.508 17.7288 215.828 20.6969 215.828 24.9428C215.828 29.1888 218.577 32.2507 222.358 32.2507C226.207 32.2507 228.889 29.2459 228.889 24.9428C228.889 20.6969 226.199 17.7288 222.358 17.7288Z" fill="#4B1212"/>
<path d="M222.087 47.0298C208.998 47.0298 199.129 37.3641 199.129 24.5467C199.129 11.7845 209 2.15967 222.087 2.15967C235.174 2.15967 245.067 11.7845 245.067 24.5467C245.078 27.6799 244.453 30.7828 243.231 33.6673C244.914 35.4616 245.765 37.4172 245.765 39.5034C245.772 40.4687 245.587 41.4258 245.22 42.3186C244.853 43.2113 244.312 44.0219 243.627 44.7026C242.943 45.3834 242.13 45.9208 241.236 46.2832C240.341 46.6457 239.384 46.8259 238.419 46.8134C236.46 46.8134 234.58 46.1765 232.827 44.9231L232.55 44.7476C229.275 46.2694 225.706 47.0487 222.095 47.0298H222.087ZM222.095 17.3327C218.246 17.3327 215.565 20.3008 215.565 24.5467C215.565 28.7927 218.316 31.8546 222.095 31.8546C225.944 31.8546 228.625 28.8498 228.625 24.5467C228.625 20.3008 225.936 17.3327 222.095 17.3327Z" fill="#4B1212"/>
<path d="M221.824 46.6358C208.737 46.6358 198.866 36.9702 198.866 24.1528C198.866 11.3905 208.737 1.76575 221.824 1.76575C234.911 1.76575 244.806 11.3905 244.806 24.1528C244.817 27.286 244.192 30.3889 242.969 33.2734C244.653 35.0677 245.504 37.0233 245.504 39.1095C245.511 40.0748 245.326 41.0319 244.959 41.9246C244.592 42.8174 244.05 43.6279 243.366 44.3087C242.682 44.9895 241.869 45.5269 240.975 45.8893C240.08 46.2517 239.122 46.432 238.157 46.4194C236.198 46.4194 234.319 45.7826 232.566 44.5292L232.288 44.3536C229.014 45.8755 225.444 46.6548 221.834 46.6358H221.824ZM221.834 16.9388C217.985 16.9388 215.304 19.9069 215.304 24.1528C215.304 28.3987 218.055 31.4607 221.834 31.4607C225.683 31.4607 228.364 28.4559 228.364 24.1528C228.364 19.9069 225.677 16.9388 221.834 16.9388Z" fill="#4B1212"/>
<path d="M221.561 46.2439C208.472 46.2439 198.603 36.5783 198.603 23.7609C198.603 10.9986 208.472 1.37378 221.561 1.37378C234.65 1.37378 244.541 10.9986 244.541 23.7609C244.552 26.894 243.927 29.9968 242.704 32.8814C244.388 34.6758 245.239 36.6313 245.239 38.7175C245.246 39.6828 245.061 40.6399 244.694 41.5327C244.327 42.4255 243.785 43.236 243.101 43.9168C242.417 44.5975 241.604 45.1349 240.709 45.4973C239.815 45.8598 238.857 46.04 237.892 46.0275C235.933 46.0275 234.054 45.3906 232.301 44.1372L232.023 43.9617C228.749 45.4834 225.179 46.2627 221.569 46.2439H221.561ZM221.569 16.5469C217.72 16.5469 215.039 19.5149 215.039 23.7609C215.039 28.0068 217.787 31.0688 221.569 31.0688C225.418 31.0688 228.099 28.0639 228.099 23.7609C228.099 19.5149 225.411 16.5469 221.569 16.5469Z" fill="#4B1212"/>
<path d="M221.299 45.8499C208.211 45.8499 198.342 36.1843 198.342 23.3669C198.342 10.6046 208.211 0.979858 221.299 0.979858C234.388 0.979858 244.28 10.6046 244.28 23.3669C244.29 26.5001 243.666 29.6029 242.443 32.4875C244.126 34.2818 244.977 36.2374 244.977 38.3236C244.985 39.2889 244.8 40.246 244.433 41.1388C244.065 42.0315 243.524 42.842 242.84 43.5228C242.156 44.2036 241.343 44.741 240.448 45.1034C239.554 45.4658 238.596 45.6461 237.631 45.6336C235.674 45.6336 233.792 44.9987 232.04 43.7433L231.762 43.5677C228.488 45.0896 224.918 45.869 221.308 45.8499H221.299ZM221.308 16.1529C217.457 16.1529 214.777 19.121 214.777 23.3669C214.777 27.6129 217.526 30.6748 221.308 30.6748C225.156 30.6748 227.838 27.67 227.838 23.3669C227.838 19.121 225.148 16.1529 221.308 16.1529Z" fill="#4B1212"/>
<path d="M221.036 45.456C207.947 45.456 198.079 35.7904 198.079 22.973C198.079 10.2107 207.949 0.585938 221.036 0.585938C234.123 0.585938 244.018 10.2107 244.018 22.973C244.03 26.1062 243.405 29.2091 242.182 32.0936C243.865 33.8879 244.716 35.8435 244.716 37.9297C244.724 38.895 244.538 39.8521 244.171 40.7448C243.804 41.6376 243.263 42.4481 242.579 43.1289C241.894 43.8097 241.081 44.347 240.187 44.7095C239.293 45.0719 238.335 45.2521 237.37 45.2396C235.411 45.2396 233.531 44.6027 231.778 43.3494L231.501 43.1738C228.227 44.6956 224.657 45.475 221.046 45.456H221.036ZM221.046 15.759C217.198 15.759 214.516 18.7271 214.516 22.973C214.516 27.2189 217.267 30.2809 221.046 30.2809C224.895 30.2809 227.577 27.2761 227.577 22.973C227.577 18.7271 224.887 15.759 221.046 15.759Z" fill="#4B1212"/>
<path d="M220.771 45.062C207.684 45.062 197.813 35.3964 197.813 22.579C197.813 9.81668 207.684 0.191895 220.771 0.191895C233.858 0.191895 243.751 9.81668 243.751 22.579C243.762 25.7122 243.138 28.815 241.915 31.6995C243.598 33.4939 244.449 35.4494 244.449 37.5356C244.457 38.5009 244.271 39.458 243.904 40.3508C243.537 41.2436 242.996 42.0541 242.312 42.7349C241.627 43.4156 240.814 43.953 239.92 44.3154C239.025 44.6779 238.068 44.8581 237.103 44.8456C235.144 44.8456 233.264 44.2087 231.511 42.9553L231.234 42.7798C227.957 44.3028 224.384 45.0821 220.771 45.062ZM220.771 15.365C216.922 15.365 214.241 18.333 214.241 22.579C214.241 26.8249 216.992 29.8869 220.771 29.8869C224.62 29.8869 227.301 26.882 227.301 22.579C227.301 18.333 224.614 15.365 220.771 15.365Z" fill="#4B1212"/>
<path d="M220.771 45.2538C207.574 45.2538 197.622 35.5045 197.622 22.579C197.622 9.70644 207.574 0 220.771 0C233.968 0 243.945 9.70644 243.945 22.579C243.955 25.6963 243.342 28.7841 242.141 31.6607C243.802 33.4653 244.641 35.4331 244.641 37.5356C244.649 38.5273 244.458 39.5104 244.081 40.4274C243.703 41.3444 243.147 42.1768 242.443 42.8756C241.74 43.5744 240.904 44.1256 239.985 44.4969C239.066 44.8681 238.082 45.0519 237.09 45.0375C235.093 45.0375 233.174 44.3904 231.391 43.1145L231.207 42.9962C227.934 44.5006 224.373 45.2712 220.771 45.2538ZM220.771 15.5528C217.035 15.5528 214.427 18.4392 214.427 22.5728C214.427 26.7065 217.098 29.697 220.771 29.697C224.508 29.697 227.116 26.7698 227.116 22.579C227.116 18.4453 224.508 15.5589 220.771 15.5589" fill="#0FAB4B"/>
<path d="M220.771 42.8512C208.935 42.8512 200.021 34.1368 200.021 22.5789C200.021 11.0761 208.941 2.40051 220.771 2.40051C232.601 2.40051 241.543 11.074 241.543 22.5789C241.56 25.927 240.769 29.2296 239.235 32.2057C241.257 33.8898 242.241 35.6372 242.241 37.5356C242.241 40.4444 240.029 42.6389 237.094 42.6389C235.591 42.6389 234.125 42.1306 232.74 41.1262L231.348 40.2424C228.095 41.9817 224.459 42.8786 220.771 42.8512ZM220.771 13.1541C215.704 13.1541 212.025 17.1184 212.025 22.5789C212.025 28.0904 215.698 32.0975 220.771 32.0975C225.844 32.0975 229.517 28.0945 229.517 22.5789C229.517 17.1184 225.844 13.1541 220.771 13.1541Z" fill="white"/>
<path d="M220.771 41.6999C209.598 41.6999 201.18 33.4796 201.18 22.579C201.18 11.5559 209.422 3.55396 220.771 3.55396C232.119 3.55396 240.392 11.5559 240.392 22.579C240.415 26.0734 239.499 29.5098 237.739 32.5283L237.966 32.6733C240.086 34.2879 241.09 35.8659 241.09 37.5357C241.09 39.7811 239.374 41.4836 237.096 41.4836C235.804 41.4836 234.584 41.0488 233.368 40.1547L231.382 38.8993C228.16 40.767 224.495 41.7349 220.771 41.702V41.6999ZM220.771 12.005C215.036 12.005 210.871 16.453 210.871 22.581C210.871 28.6641 215.126 33.253 220.771 33.253C226.415 33.253 230.668 28.6641 230.668 22.581C230.668 16.4571 226.505 12.005 220.771 12.005Z" fill="#010101"/>
<path d="M220.771 41.0018C209.822 41.0018 201.874 33.2448 201.874 22.581C201.874 11.9661 209.822 4.2561 220.771 4.2561C231.719 4.2561 239.692 11.9641 239.692 22.581C239.72 26.203 238.695 29.7553 236.743 32.8059L237.588 33.2672C239.474 34.6961 240.39 36.1026 240.39 37.5377C240.39 39.1503 239.259 40.7854 237.096 40.7854C235.957 40.7854 234.874 40.3935 233.78 39.5912L231.352 38.0521C228.342 39.9811 224.658 41.0018 220.769 41.0018H220.771ZM220.769 11.3048C214.726 11.3048 210.171 16.1529 210.171 22.581C210.171 29.0642 214.726 33.9531 220.769 33.9531C226.811 33.9531 231.366 29.0642 231.366 22.581C231.366 16.1529 226.811 11.3048 220.769 11.3048Z" fill="#F26622"/>
<path d="M48.707 46.8195C39.879 46.8195 33.9468 40.7426 33.9468 31.6975V16.9817C33.9468 13.144 36.8037 10.2454 40.6157 10.2454C44.4277 10.2454 47.2847 13.1379 47.2847 16.9817V32.512C47.2847 34.2328 48.3172 34.2328 48.7131 34.2328C49.109 34.2328 50.1416 34.2328 50.1416 32.512V17.0225C50.1416 13.1848 52.9986 10.2862 56.8106 10.2862C60.6225 10.2862 63.4795 13.1787 63.4795 17.0225V31.6955C63.4795 40.7405 57.5493 46.8175 48.7213 46.8175" fill="#4B1212"/>
<path d="M48.4906 46.4929C39.6626 46.4929 33.7324 40.4159 33.7324 31.3709V16.6571C33.7324 12.8194 36.5894 9.92078 40.4014 9.92078C44.2133 9.92078 47.0703 12.8133 47.0703 16.6571V32.1874C47.0703 33.9082 48.1029 33.9082 48.4988 33.9082C48.8947 33.9082 49.9272 33.9082 49.9272 32.1874V16.6959C49.9272 12.8582 52.7842 9.95956 56.5962 9.95956C60.4082 9.95956 63.2651 12.8521 63.2651 16.6959V31.3688C63.2651 40.4139 57.3329 46.4909 48.5069 46.4909" fill="#4B1212"/>
<path d="M48.2743 46.1724C39.4463 46.1724 33.5161 40.0954 33.5161 31.0504V16.3325C33.5161 12.4949 36.3731 9.59619 40.1851 9.59619C43.997 9.59619 46.854 12.4887 46.854 16.3325V31.8628C46.854 33.5836 47.8866 33.5836 48.2825 33.5836C48.6784 33.5836 49.7109 33.5836 49.7109 31.8628V16.3693C49.7109 12.5316 52.5781 9.63293 56.3799 9.63293C60.1817 9.63293 63.0264 12.5357 63.0264 16.3693V31.0463C63.0264 40.0914 57.1084 46.1724 48.2743 46.1724Z" fill="#4B1212"/>
<path d="M48.0581 45.8438C39.2301 45.8438 33.2979 39.7668 33.2979 30.7218V16.006C33.2979 12.1683 36.1548 9.26965 39.9668 9.26965C43.7788 9.26965 46.6357 12.1622 46.6357 16.006V31.5363C46.6357 33.2571 47.6683 33.2571 48.0642 33.2571C48.4601 33.2571 49.4927 33.2571 49.4927 31.5363V16.0468C49.4927 12.2091 52.3496 9.31048 56.1616 9.31048C59.9736 9.31048 62.8306 12.203 62.8306 16.0468V30.7198C62.8306 39.7648 56.8983 45.8418 48.0724 45.8418" fill="#4B1212"/>
<path d="M47.8418 45.5192C39.0138 45.5192 33.0815 39.4423 33.0815 30.3972V15.6814C33.0815 11.8437 35.9385 8.94507 39.7505 8.94507C43.5625 8.94507 46.4194 11.8376 46.4194 15.6814V31.2117C46.4194 32.9325 47.452 32.9325 47.8479 32.9325C48.2438 32.9325 49.2764 32.9325 49.2764 31.2117V15.7222C49.2764 11.8846 52.1333 8.98589 55.9453 8.98589C59.7573 8.98589 62.6143 11.8784 62.6143 15.7222V30.3952C62.6143 39.4402 56.684 45.5172 47.8561 45.5172" fill="#4B1212"/>
<path d="M47.6255 45.1926C38.7975 45.1926 32.8652 39.1156 32.8652 30.0706V15.3486C32.8652 11.511 35.7222 8.6123 39.5342 8.6123C43.3462 8.6123 46.2031 11.5048 46.2031 15.3486V30.8769C46.2031 32.5977 47.2357 32.5977 47.6316 32.5977C48.0275 32.5977 49.0601 32.5977 49.0601 30.8769V15.3976C49.0601 11.56 51.917 8.6613 55.729 8.6613C59.541 8.6613 62.398 11.5538 62.398 15.3976V30.0706C62.398 39.1156 56.4677 45.1926 47.6398 45.1926" fill="#4B1212"/>
<path d="M47.4092 44.868C38.5812 44.868 32.6489 38.7911 32.6489 29.746V15.0322C32.6489 11.1946 35.5059 8.2959 39.3179 8.2959C43.1299 8.2959 45.9868 11.1884 45.9868 15.0322V30.5605C45.9868 32.2813 47.0194 32.2813 47.4153 32.2813C47.8112 32.2813 48.8438 32.2813 48.8438 30.5605V15.071C48.8438 11.2333 51.7007 8.33468 55.5127 8.33468C59.3247 8.33468 62.1816 11.2272 62.1816 15.071V29.744C62.1816 38.789 56.2494 44.866 47.4234 44.866" fill="#4B1212"/>
<path d="M47.1929 44.5394C38.3649 44.5394 32.4326 38.4624 32.4326 29.4173V14.7076C32.4326 10.87 35.2896 7.97131 39.1016 7.97131C42.9136 7.97131 45.7705 10.8639 45.7705 14.7076V30.2359C45.7705 31.9567 46.8031 31.9567 47.199 31.9567C47.5949 31.9567 48.6275 31.9567 48.6275 30.2359V14.7464C48.6275 10.9088 51.4844 8.0101 55.2964 8.0101C59.1084 8.0101 61.9653 10.9026 61.9653 14.7464V29.4194C61.9653 38.4644 56.0331 44.5414 47.2071 44.5414" fill="#4B1212"/>
<path d="M46.9746 44.219C38.1466 44.219 32.2144 38.142 32.2144 29.097V14.3832C32.2144 10.5455 35.0713 7.64685 38.8833 7.64685C42.6953 7.64685 45.5522 10.5394 45.5522 14.3832V29.9114C45.5522 31.6323 46.5848 31.6323 46.9807 31.6323C47.3766 31.6323 48.4092 31.6323 48.4092 29.9114V14.422C48.4092 10.5843 51.2661 7.68564 55.0781 7.68564C58.8901 7.68564 61.7471 10.5782 61.7471 14.422V29.0949C61.7471 38.14 55.8168 44.2169 46.9889 44.2169" fill="#4B1212"/>
<path d="M46.7578 43.8944C37.9258 43.8944 32.0078 37.8174 32.0078 28.7703V14.0586C32.0078 10.2209 34.875 7.32227 38.6768 7.32227C42.4785 7.32227 45.3457 10.2148 45.3457 14.0586V29.5869C45.3457 31.3077 46.3783 31.3077 46.7742 31.3077C47.1701 31.3077 48.2026 31.3077 48.2026 29.5869V14.0974C48.2026 10.2597 51.0596 7.36105 54.8716 7.36105C58.6836 7.36105 61.5405 10.2536 61.5405 14.0974V28.7703C61.5405 37.8154 55.6103 43.8924 46.7823 43.8924" fill="#4B1212"/>
<path d="M46.542 43.5677C37.714 43.5677 31.7817 37.4908 31.7817 28.4457V13.7319C31.7817 9.89427 34.6489 6.99561 38.4507 6.99561C42.2525 6.99561 45.1196 9.88814 45.1196 13.7319V29.2602C45.1196 30.981 46.1522 30.981 46.5481 30.981C46.944 30.981 47.9766 30.981 47.9766 29.2602V13.7728C47.9766 9.93509 50.8437 7.03643 54.6455 7.03643C58.4473 7.03643 61.3145 9.92897 61.3145 13.7728V28.4457C61.3145 37.4908 55.3842 43.5677 46.5563 43.5677" fill="#4B1212"/>
<path d="M46.5419 43.7229C37.62 43.7229 31.6245 37.5826 31.6245 28.4416V13.732C31.6245 9.80447 34.559 6.84253 38.4526 6.84253C42.3462 6.84253 45.2726 9.80447 45.2726 13.732V29.2602C45.2726 30.8218 46.1582 30.8218 46.5358 30.8218C46.9133 30.8218 47.7989 30.8218 47.7989 29.2602V13.7728C47.7989 9.8453 50.7334 6.88335 54.625 6.88335C58.5166 6.88335 61.4531 9.8453 61.4531 13.7728V28.4457C61.4531 37.5867 55.4576 43.727 46.5358 43.727" fill="#0FAB4B"/>
<path d="M46.5418 41.7428C38.8056 41.7428 33.606 36.3986 33.606 28.4457V13.7319C33.606 10.9333 35.6895 8.83276 38.4526 8.83276C41.2157 8.83276 43.2972 10.9414 43.2972 13.7319V29.2602C43.2972 30.9728 44.1502 32.8039 46.5418 32.8039C48.9335 32.8039 49.7865 30.9667 49.7865 29.2602V13.7727C49.7865 10.9761 51.87 8.87359 54.6311 8.87359C57.3921 8.87359 59.4757 10.9823 59.4757 13.7727V28.4457C59.4757 36.4068 54.278 41.7428 46.5398 41.7428" fill="white"/>
<path d="M46.5416 40.7916C39.2604 40.7916 34.5566 35.9455 34.5566 28.4458V13.732C34.5566 11.4416 36.1892 9.77795 38.4503 9.77795C40.7113 9.77795 42.3439 11.4416 42.3439 13.734V29.2623C42.3439 31.9507 44.0295 33.7532 46.5395 33.7532C49.0495 33.7532 50.7352 31.9466 50.7352 29.2623V13.7728C50.7352 11.4804 52.3677 9.81878 54.6288 9.81878C56.8898 9.81878 58.5224 11.4824 58.5224 13.7728V28.4458C58.5224 35.9455 53.8186 40.7916 46.5375 40.7916" fill="#010101"/>
<path d="M46.5421 40.2159C39.6038 40.2159 35.1367 35.5964 35.1367 28.4457V13.7319C35.1367 11.7763 36.5325 10.3556 38.4528 10.3556C40.3731 10.3556 41.7689 11.7845 41.7689 13.7319V29.2602C41.7689 32.2956 43.6872 34.3328 46.5441 34.3328C49.4011 34.3328 51.3193 32.2915 51.3193 29.2602V13.7727C51.3193 11.8172 52.7151 10.3964 54.6354 10.3964C56.5557 10.3964 57.9515 11.8253 57.9515 13.7727V28.4457C57.9515 35.5903 53.4743 40.2159 46.5462 40.2159" fill="#F26622"/>
<path d="M183.222 46.5807C182.341 46.5876 181.468 46.4184 180.653 46.0832C179.838 45.7479 179.099 45.2533 178.478 44.6284C177.856 44.0034 177.366 43.2607 177.036 42.4438C176.705 41.6268 176.541 40.7521 176.553 39.8709V34.0062L169.346 19.4925C168.268 17.3369 168.307 15.0302 169.456 13.1644C170.029 12.2547 170.827 11.5081 171.773 10.9968C172.719 10.4855 173.781 10.2267 174.856 10.2454C177.882 10.2454 180.386 11.9682 181.569 14.8587L183.233 18.5494L184.924 14.8444C186.134 11.9192 188.559 10.2433 191.591 10.2433C192.664 10.2264 193.724 10.4861 194.668 10.9973C195.612 11.5085 196.408 12.2541 196.981 13.1624C198.129 15.02 198.166 17.3267 197.085 19.4905L189.891 33.996V39.8587C189.905 40.7409 189.742 41.6169 189.412 42.4353C189.083 43.2537 188.593 43.9978 187.972 44.6241C187.35 45.2504 186.61 45.7461 185.794 46.0821C184.979 46.4181 184.104 46.5876 183.222 46.5807Z" fill="#4B1212"/>
<path d="M183.002 46.2541C182.121 46.261 181.247 46.0918 180.433 45.7566C179.618 45.4213 178.878 44.9267 178.257 44.3018C177.636 43.6768 177.146 42.9341 176.815 42.1171C176.485 41.3002 176.321 40.4255 176.333 39.5443V33.6817L169.142 19.1679C168.064 17.0123 168.103 14.7056 169.252 12.8399C169.824 11.9316 170.621 11.186 171.565 10.6748C172.508 10.1635 173.568 9.90388 174.641 9.92079C177.668 9.92079 180.171 11.6437 181.355 14.5342L183.02 18.2248L184.712 14.5199C185.922 11.5947 188.348 9.91874 191.381 9.91874C192.454 9.90184 193.514 10.1615 194.458 10.6727C195.401 11.184 196.198 11.9296 196.77 12.8378C197.919 14.6975 197.956 17.0021 196.874 19.1659L189.681 33.6715V39.5341C189.693 40.4153 189.529 41.29 189.199 42.1069C188.868 42.9239 188.378 43.6666 187.757 44.2916C187.136 44.9165 186.396 45.4111 185.581 45.7464C184.766 46.0816 183.893 46.2508 183.012 46.2439" fill="#4B1212"/>
<path d="M182.786 45.9296C181.905 45.9365 181.031 45.7673 180.217 45.4321C179.402 45.0968 178.662 44.6022 178.041 43.9773C177.42 43.3523 176.93 42.6096 176.599 41.7927C176.269 40.9757 176.105 40.101 176.117 39.2198V33.3572L168.919 18.8434C167.842 16.6878 167.881 14.3811 169.03 12.5154C169.602 11.6071 170.399 10.8615 171.342 10.3503C172.286 9.83905 173.346 9.5794 174.419 9.59631C177.447 9.59631 179.949 11.3192 181.133 14.2097L182.798 17.9004L184.49 14.1954C185.7 11.2702 188.126 9.59426 191.159 9.59426C192.232 9.57755 193.291 9.83729 194.235 10.3485C195.179 10.8597 195.976 11.6052 196.548 12.5133C197.697 14.3709 197.734 16.6776 196.652 18.8414L189.459 33.347V39.2096C189.471 40.0908 189.307 40.9655 188.976 41.7824C188.646 42.5994 188.156 43.3421 187.535 43.9671C186.913 44.592 186.174 45.0866 185.359 45.4219C184.544 45.7571 183.671 45.9263 182.79 45.9194" fill="#4B1212"/>
<path d="M182.57 45.6029C181.689 45.6097 180.815 45.4406 180 45.1053C179.186 44.7701 178.446 44.2755 177.825 43.6505C177.204 43.0256 176.713 42.2828 176.383 41.4659C176.053 40.649 175.889 39.7743 175.901 38.8931V33.0325L168.703 18.5187C167.626 16.3631 167.664 14.0564 168.813 12.1907C169.386 11.2824 170.182 10.5368 171.126 10.0256C172.07 9.51434 173.13 9.25469 174.203 9.2716C177.229 9.2716 179.733 10.9945 180.917 13.885L182.582 17.5757L184.274 13.8707C185.484 10.9455 187.908 9.26956 190.94 9.26956C192.014 9.25284 193.073 9.51258 194.017 10.0238C194.961 10.535 195.757 11.2805 196.33 12.1886C197.479 14.0483 197.515 16.3529 196.434 18.5167L189.241 33.0223V38.8849C189.253 39.7661 189.088 40.6408 188.758 41.4577C188.428 42.2747 187.937 43.0174 187.316 43.6424C186.695 44.2673 185.956 44.7619 185.141 45.0972C184.326 45.4324 183.453 45.6016 182.572 45.5947" fill="#4B1212"/>
<path d="M182.353 45.2784C181.472 45.2853 180.599 45.1161 179.784 44.7809C178.969 44.4456 178.23 43.951 177.609 43.3261C176.987 42.7011 176.497 41.9584 176.167 41.1415C175.836 40.3245 175.672 39.4498 175.684 38.5686V32.6998L168.485 18.1861C167.407 16.0305 167.446 13.7238 168.595 11.8581C169.167 10.9498 169.964 10.2042 170.908 9.69295C171.852 9.18172 172.911 8.92207 173.984 8.93898C177.013 8.93898 179.515 10.6618 180.698 13.5523L182.364 17.243L184.055 13.5381C185.265 10.6129 187.69 8.93693 190.722 8.93693C191.795 8.92002 192.855 9.17968 193.799 9.69091C194.743 10.2021 195.539 10.9478 196.112 11.856C197.261 13.7136 197.297 16.0203 196.216 18.1841L189.022 32.6998V38.5625C189.034 39.4437 188.87 40.3184 188.54 41.1353C188.209 41.9523 187.719 42.695 187.098 43.32C186.477 43.9449 185.737 44.4395 184.923 44.7748C184.108 45.11 183.234 45.2792 182.353 45.2723" fill="#4B1212"/>
<path d="M182.137 44.9477C181.256 44.9545 180.383 44.7856 179.569 44.4507C178.754 44.1158 178.015 43.6218 177.394 42.9975C176.773 42.3732 176.283 41.6312 175.952 40.815C175.621 39.9987 175.456 39.1247 175.468 38.244V32.3814L168.268 17.8676C167.191 15.712 167.229 13.4053 168.378 11.5396C168.951 10.6312 169.747 9.88546 170.691 9.3742C171.635 8.86295 172.694 8.60338 173.768 8.62049C176.796 8.62049 179.3 10.3434 180.481 13.2339L182.147 16.9246L183.838 13.2196C185.049 10.2944 187.473 8.61845 190.505 8.61845C191.579 8.60154 192.638 8.86119 193.582 9.37243C194.526 9.88366 195.322 10.6293 195.895 11.5375C197.044 13.3951 197.08 15.7018 195.999 17.8656L188.805 32.3712V38.2338C188.818 39.1153 188.654 39.9905 188.324 40.8079C187.994 41.6253 187.504 42.3685 186.883 42.9939C186.262 43.6193 185.522 44.1143 184.707 44.4498C183.892 44.7853 183.018 44.9546 182.137 44.9477Z" fill="#4B1212"/>
<path d="M181.921 44.6292C181.04 44.6361 180.166 44.467 179.351 44.1317C178.537 43.7965 177.797 43.3019 177.176 42.6769C176.555 42.052 176.065 41.3092 175.734 40.4923C175.404 39.6754 175.24 38.8006 175.252 37.9195V32.0568L168.052 17.5431C166.975 15.3875 167.014 13.0808 168.162 11.215C168.735 10.3068 169.531 9.56115 170.475 9.04992C171.419 8.53868 172.479 8.27903 173.552 8.29594C176.578 8.29594 179.082 10.0188 180.264 12.9093L181.929 16.6L183.631 12.8991C184.839 9.9739 187.265 8.29799 190.298 8.29799C191.371 8.28108 192.43 8.54073 193.374 9.05196C194.318 9.56319 195.115 10.3088 195.687 11.2171C196.836 13.0767 196.873 15.3813 195.791 17.5451L188.598 32.0507V37.9133C188.61 38.7945 188.446 39.6692 188.115 40.4862C187.785 41.3031 187.295 42.0458 186.674 42.6708C186.052 43.2957 185.313 43.7904 184.498 44.1256C183.683 44.4608 182.81 44.63 181.929 44.6231" fill="#4B1212"/>
<path d="M181.702 44.3046C180.821 44.3112 179.948 44.142 179.134 43.8069C178.32 43.4718 177.581 42.9775 176.96 42.353C176.339 41.7285 175.849 40.9864 175.518 40.17C175.188 39.3537 175.024 38.4796 175.035 37.5989V31.7322L167.835 17.2185C166.758 15.0628 166.797 12.7562 167.946 10.8904C168.518 9.98201 169.314 9.23629 170.258 8.72503C171.202 8.21378 172.262 7.95421 173.335 7.97132C176.363 7.97132 178.865 9.69419 180.049 12.5847L181.714 16.2754L183.406 12.5704C184.616 9.6452 187.04 7.96928 190.073 7.96928C191.146 7.95237 192.205 8.21202 193.149 8.72326C194.093 9.23449 194.89 9.9801 195.462 10.8884C196.611 12.7459 196.648 15.0526 195.566 17.2164L188.373 31.722V37.5989C188.385 38.4801 188.221 39.3548 187.89 40.1718C187.56 40.9887 187.07 41.7314 186.449 42.3564C185.827 42.9813 185.088 43.4759 184.273 43.8112C183.458 44.1464 182.585 44.3156 181.704 44.3087" fill="#4B1212"/>
<path d="M181.486 43.978C180.605 43.9849 179.731 43.8157 178.916 43.4805C178.102 43.1452 177.362 42.6506 176.741 42.0257C176.12 41.4007 175.63 40.658 175.299 39.841C174.969 39.0241 174.805 38.1494 174.817 37.2682V31.4076L167.617 16.8939C166.54 14.7383 166.578 12.4316 167.727 10.5658C168.3 9.65756 169.096 8.91195 170.04 8.40072C170.984 7.88948 172.044 7.62983 173.117 7.64674C176.143 7.64674 178.647 9.36961 179.831 12.2601L181.494 15.9508L183.185 12.2458C184.396 9.32062 186.82 7.6447 189.852 7.6447C190.926 7.62779 191.985 7.88744 192.929 8.39867C193.873 8.90991 194.669 9.65552 195.242 10.5638C196.391 12.4214 196.427 14.728 195.346 16.8918L188.153 31.3974V37.26C188.164 38.1412 188 39.0159 187.67 39.8329C187.34 40.6498 186.849 41.3926 186.228 42.0175C185.607 42.6425 184.868 43.1371 184.053 43.4723C183.238 43.8076 182.365 43.9767 181.484 43.9698" fill="#4B1212"/>
<path d="M181.269 43.6535C180.388 43.6604 179.515 43.4912 178.7 43.156C177.885 42.8207 177.146 42.3261 176.524 41.7012C175.903 41.0762 175.413 40.3335 175.083 39.5165C174.752 38.6996 174.588 37.8249 174.6 36.9437V31.081L167.403 16.5734C166.325 14.4178 166.364 12.1111 167.513 10.2454C168.085 9.33712 168.882 8.59151 169.826 8.08028C170.77 7.56905 171.829 7.30939 172.902 7.3263C175.929 7.3263 178.433 9.04917 179.616 11.9397L181.281 15.6304L182.973 11.9254C184.183 9.00018 186.608 7.32426 189.642 7.32426C190.715 7.30735 191.775 7.56701 192.719 8.07824C193.663 8.58947 194.459 9.33508 195.032 10.2433C196.18 12.103 196.217 14.4076 195.136 16.5714L187.942 31.077V36.9396C187.954 37.8208 187.79 38.6955 187.46 39.5124C187.129 40.3294 186.639 41.0721 186.018 41.6971C185.397 42.322 184.657 42.8166 183.843 43.1519C183.028 43.4871 182.154 43.6563 181.273 43.6494" fill="#4B1212"/>
<path d="M181.053 43.3289C180.172 43.3358 179.298 43.1666 178.484 42.8314C177.669 42.4961 176.929 42.0015 176.308 41.3766C175.687 40.7516 175.197 40.0089 174.866 39.192C174.536 38.375 174.372 37.5003 174.384 36.6191V30.7565L167.186 16.2427C166.109 14.0871 166.148 11.7804 167.297 9.91467C167.869 9.00642 168.666 8.26081 169.609 7.74957C170.553 7.23834 171.613 6.97869 172.686 6.9956C175.714 6.9956 178.216 8.71846 179.4 11.609L181.065 15.2997L182.757 11.5947C183.967 8.66947 186.393 6.99356 189.426 6.99356C190.499 6.97684 191.558 7.23658 192.502 7.74779C193.446 8.25901 194.243 9.00451 194.815 9.91263C195.964 11.7702 196.001 14.0769 194.919 16.2407L187.726 30.7463V36.6191C187.738 37.5004 187.574 38.3752 187.244 39.1923C186.914 40.0093 186.424 40.7522 185.802 41.3772C185.181 42.0022 184.441 42.4968 183.627 42.832C182.812 43.1671 181.938 43.3361 181.057 43.3289" fill="#4B1212"/>
<path d="M181.053 43.4881C180.151 43.4955 179.257 43.3226 178.422 42.9796C177.588 42.6365 176.831 42.1302 176.194 41.4904C175.558 40.8505 175.057 40.09 174.718 39.2535C174.38 38.417 174.212 37.5213 174.225 36.6191V30.7952L167.044 16.3142C165.942 14.1095 165.983 11.7457 167.16 9.83912C167.747 8.90788 168.563 8.14328 169.53 7.61883C170.498 7.09438 171.584 6.82773 172.684 6.84452C175.778 6.84452 178.335 8.60413 179.543 11.5559L181.063 14.9261L182.608 11.5395C183.843 8.55309 186.322 6.84452 189.422 6.84452C190.522 6.82752 191.608 7.09386 192.575 7.61794C193.543 8.14202 194.359 8.90622 194.946 9.83708C196.123 11.7437 196.17 14.1075 195.058 16.3223L187.881 30.7932V36.6191C187.893 37.5213 187.725 38.4168 187.387 39.2532C187.049 40.0896 186.547 40.85 185.911 41.4897C185.275 42.1295 184.518 42.6359 183.683 42.979C182.849 43.3222 181.955 43.4953 181.053 43.4881Z" fill="#3B7EC1"/>
<path d="M181.053 41.504C178.29 41.504 176.207 39.4034 176.207 36.6171V30.3298L168.819 15.4282C168.03 13.8462 168.038 12.1866 168.846 10.8782C169.255 10.2335 169.824 9.70515 170.496 9.34404C171.169 8.98292 171.923 8.80122 172.686 8.81643C175.001 8.81643 176.843 10.1086 177.737 12.3602L180.91 19.3925L181.055 19.7436L181.18 19.4415L184.445 12.2969C185.335 10.08 187.114 8.82664 189.426 8.82664C190.188 8.81091 190.942 8.99154 191.614 9.35118C192.286 9.71081 192.855 10.2374 193.265 10.8802C194.081 12.1887 194.081 13.8503 193.289 15.4364L185.904 30.338V36.6191C185.904 39.4055 183.82 41.506 181.059 41.506" fill="white"/>
<path d="M181.053 40.5526C178.833 40.5526 177.16 38.8604 177.16 36.619V30.1072L169.672 15.0015C169.021 13.6991 169.015 12.4111 169.656 11.372C169.981 10.8678 170.431 10.4557 170.961 10.1751C171.491 9.89448 172.085 9.75486 172.684 9.76961C174.617 9.76961 176.096 10.8168 176.851 12.7152L180.041 19.7863L181.061 22.2359L182.065 19.8006L185.308 12.6948C186.073 10.7964 187.498 9.77778 189.424 9.77778C190.024 9.76303 190.617 9.90265 191.147 10.1832C191.678 10.4638 192.127 10.876 192.452 11.3802C193.093 12.4172 193.087 13.7073 192.434 15.0117L184.949 30.1174V36.6292C184.949 38.8746 183.273 40.5628 181.055 40.5628" fill="#010101"/>
<path d="M181.053 39.975C179.131 39.975 177.737 38.5624 177.737 36.6191V29.9583L170.187 14.7525C169.628 13.6359 169.613 12.5459 170.144 11.6906C170.417 11.2703 170.794 10.9273 171.239 10.6946C171.683 10.4619 172.179 10.3473 172.68 10.3617C174.384 10.3617 175.639 11.2537 176.311 12.9419L179.511 20.0375L181.049 23.7711L182.588 20.0395L185.829 12.9399C186.518 11.2313 187.724 10.3617 189.418 10.3617C189.919 10.3473 190.416 10.4619 190.86 10.6946C191.304 10.9273 191.681 11.2703 191.955 11.6906C192.485 12.55 192.471 13.64 191.912 14.7525L184.361 29.9828V36.6191C184.361 38.5624 182.967 39.975 181.045 39.975" fill="#FFC60A"/>
</svg>
