<svg width="28" height="28" viewBox="0 0 28 28" fill="none" xmlns="http://www.w3.org/2000/svg">
<g clip-path="url(#clip0)">
<path d="M22.9918 27.5206C17.0033 28.1598 10.9967 28.1598 5.00818 27.5206C2.6203 27.2658 0.734222 25.3797 0.47937 22.9916C-0.15979 17.0031 -0.15979 10.9967 0.47937 5.00818C0.734222 2.6203 2.6203 0.734222 5.00818 0.47937C10.9967 -0.15979 17.0031 -0.15979 22.9916 0.47937C25.3797 0.734222 27.2658 2.6203 27.5206 5.00818C28.1598 10.9967 28.1598 17.0031 27.5206 22.9916C27.2658 25.3797 25.3799 27.2658 22.9918 27.5206Z" fill="url(#paint0_linear)"/>
<path d="M25.9975 6.02101C25.7715 3.90208 24.098 2.22835 21.9788 2.00212C16.6647 1.43517 11.3349 1.43517 6.02077 2.00212C3.90184 2.22835 2.2281 3.90208 2.00188 6.02101C1.43492 11.3351 1.43492 16.665 2.00188 21.9789C2.2281 24.098 3.90184 25.7717 6.02077 25.9978C11.3349 26.5649 16.6647 26.5649 21.9786 25.9978C24.0978 25.7717 25.7715 24.098 25.9975 21.9789C26.5647 16.665 26.5647 11.3351 25.9975 6.02101Z" fill="url(#paint1_linear)"/>
<path d="M0.419434 22.4111C0.43866 22.6047 0.458527 22.7982 0.479248 22.9918C0.7341 25.3796 2.62018 27.2657 5.00827 27.5206C10.9968 28.1597 17.0032 28.1597 22.9917 27.5206C25.3798 27.2657 27.2657 25.3796 27.5205 22.9918C27.5412 22.7982 27.5611 22.6047 27.5805 22.4111H0.419434Z" fill="url(#paint2_linear)"/>
<path d="M27.9941 13.0161L22.182 7.20428C21.5307 7.57663 20.9567 7.7832 20.5243 7.89771C20.2812 7.96286 20.0828 7.99832 19.9401 8.01776C19.2847 7.34592 18.3695 6.92871 17.3565 6.92871C15.3634 6.92871 13.7473 8.54456 13.7473 10.5381C13.7473 10.6101 13.7493 10.6812 13.754 10.7521C13.7636 10.925 13.7856 11.0948 13.8196 11.2599C12.9875 11.2475 10.283 11.0254 7.70374 8.81436C7.70352 8.81436 7.70352 8.81415 7.70352 8.81415H7.70331L6.48694 7.59756C6.48694 7.59756 5.05994 10.0882 7.15793 11.9781C7.25 12.0809 7.35126 12.1823 7.46213 12.2821C7.47089 12.2919 7.48007 12.3015 7.48883 12.3114C7.21347 12.2928 6.38525 12.2103 5.90588 11.8717C5.90588 11.8717 5.80954 13.394 7.07782 14.5147L8.10193 15.5475C7.79004 15.5734 7.44504 15.5672 7.20514 15.4621C7.20514 15.4621 7.41748 16.3638 8.23822 17.0854L9.67291 18.5276C8.81223 19.029 7.30554 19.6564 5.32227 19.4962L14.0255 28.0001C17.0158 27.9992 20.0061 27.8394 22.9919 27.5207C25.38 27.2658 27.2661 25.3798 27.5209 22.9919C27.8753 19.67 28.0327 16.3427 27.9941 13.0161Z" fill="url(#paint3_linear)"/>
<path d="M22.6778 8.60608C22.0583 8.93015 21.1252 9.0799 20.8159 9.12305C20.8133 9.10809 20.8107 9.09378 20.8082 9.07947C21.8598 8.42899 22.1818 7.20428 22.1818 7.20428C21.5304 7.57663 20.9564 7.7832 20.524 7.89771C20.2809 7.96286 20.0825 7.99811 19.9398 8.01776C19.2844 7.3457 18.3692 6.92871 17.3562 6.92871C15.3631 6.92871 13.7471 8.54434 13.7471 10.5381C13.7471 10.6099 13.749 10.6812 13.7537 10.7519C13.7633 10.9247 13.7853 11.0946 13.8193 11.2597C12.8546 11.2454 9.37228 10.9495 6.48666 7.59756C6.48666 7.59756 4.87979 10.4012 7.58127 12.3163C7.58127 12.3163 6.48666 12.2821 5.90561 11.8717C5.90561 11.8717 5.73471 14.5732 8.84613 15.4277C8.84613 15.4277 7.75217 15.7016 7.20465 15.4621C7.20465 15.4621 7.75195 17.7872 10.4874 17.9585C10.4874 17.9585 8.52548 19.7546 5.32178 19.4962C6.89746 20.4938 8.76559 21.0712 10.7685 21.0712C16.4003 21.0712 20.9658 16.5059 20.9658 10.8741C20.9658 10.8038 20.9652 10.7336 20.9637 10.6633C20.9652 10.6216 20.9658 10.5802 20.9658 10.5381C20.9658 10.5088 20.9652 10.4796 20.9648 10.4503C22.006 9.75644 22.6778 8.60608 22.6778 8.60608Z" fill="white"/>
</g>
<defs>
<linearGradient id="paint0_linear" x1="9.29655" y1="3.93675" x2="16.3785" y2="19.0889" gradientUnits="userSpaceOnUse">
<stop stop-color="#00C3FF"/>
<stop offset="1" stop-color="#00B0ED"/>
</linearGradient>
<linearGradient id="paint1_linear" x1="19.9215" y1="17.1767" x2="-20.7588" y2="-4.64578" gradientUnits="userSpaceOnUse">
<stop stop-color="#00B0ED" stop-opacity="0"/>
<stop offset="1" stop-color="#00A2CE"/>
</linearGradient>
<linearGradient id="paint2_linear" x1="13.9999" y1="23.9193" x2="13.9999" y2="27.5883" gradientUnits="userSpaceOnUse">
<stop stop-color="#00B0ED" stop-opacity="0"/>
<stop offset="1" stop-color="#00A2CE"/>
</linearGradient>
<linearGradient id="paint3_linear" x1="26.7653" y1="26.3634" x2="13.0864" y2="12.6846" gradientUnits="userSpaceOnUse">
<stop stop-color="#00B0ED" stop-opacity="0"/>
<stop offset="1" stop-color="#00A2CE"/>
</linearGradient>
<clipPath id="clip0">
<rect width="28" height="28" fill="white"/>
</clipPath>
</defs>
</svg>
