<svg width="28" height="24" viewBox="0 0 28 24" fill="none" xmlns="http://www.w3.org/2000/svg">
<g clip-path="url(#clip0)">
<path d="M27.4231 6.23876C27.1003 5.21063 26.1546 4.4002 24.9553 4.12335C22.7642 3.60938 13.9997 3.60938 13.9997 3.60938C13.9997 3.60938 5.23545 3.60938 3.04433 4.10376C1.86813 4.38043 0.899349 5.21081 0.576566 6.23876C0 8.11668 0 12.0113 0 12.0113C0 12.0113 0 15.9255 0.576566 17.7839C0.899563 18.8118 1.84505 19.6224 3.04454 19.8993C5.25852 20.4133 13.9999 20.4133 13.9999 20.4133C13.9999 20.4133 22.7642 20.4133 24.9553 19.9189C26.1548 19.6422 27.1003 18.8316 27.4233 17.8037C27.9999 15.9255 27.9999 12.0311 27.9999 12.0311C27.9999 12.0311 28.023 8.11668 27.4231 6.23876Z" fill="#FF0000"/>
<path d="M11.209 15.6094L18.4972 12.0114L11.209 8.41333V15.6094Z" fill="white"/>
</g>
<defs>
<clipPath id="clip0">
<rect width="28" height="24" fill="white"/>
</clipPath>
</defs>
</svg>
